<svg xmlns="http://www.w3.org/2000/svg" xmlns:v="https://svgstorm.com"
viewBox = "0 0 1478 429"
width="1478"
height="429">
<g fill="None" fill-opacity="0.0" stroke="#000000" stroke-opacity="0.00" stroke-width="0.3"><path d="
M 0.00 429.00 
L 1478.00 429.00
L 1478.00 0.00
L 0.00 0.00
L 0.00 429.00
M 1210.00 36.00 
C 1209.99 127.00 1210.01 218.00 1210.00 309.00
C 1195.00 309.00 1180.00 309.00 1165.00 309.00
C 1165.00 297.30 1165.00 285.72 1165.00 274.00 C 1165.00 262.28 1164.99 250.76 1165.00 239.00 C 1165.01 227.24 1164.98 214.75 1165.00 203.00 C 1165.02 191.25 1164.96 179.68 1165.00 168.00 C 1165.04 156.32 1164.92 144.63 1165.00 133.00 C 1165.08 121.37 1164.82 108.43 1165.00 97.00 C 1165.18 85.57 1164.59 72.94 1165.00 62.00 C 1165.41 51.06 1160.57 34.90 1174.00 36.00 C 1187.43 37.10 1196.92 35.18 1210.00 36.00
M 184.00 311.00 
C 182.42 311.17 181.44 311.76 180.00 312.00
C 176.74 312.54 171.24 312.64 168.00 312.00
C 166.94 311.79 166.18 311.18 165.00 311.00
C 133.32 306.14 101.19 298.88 77.75 275.25 C 54.31 251.61 39.54 226.44 36.02 193.98 C 32.51 161.51 39.23 125.16 58.30 98.30 C 77.38 71.45 99.85 57.46 130.02 47.02 C 160.20 36.59 204.50 40.08 233.08 52.92 C 261.66 65.76 284.44 85.00 296.00 114.00
C 282.82 117.36 270.47 123.50 257.00 126.00
C 231.08 74.88 152.49 64.86 111.75 103.75 C 71.02 142.65 73.51 218.75 118.23 253.77 C 162.95 288.79 238.72 272.81 261.00 219.00
C 274.14 222.53 287.07 226.79 300.00 231.00
C 281.54 278.21 233.59 310.24 184.00 311.00
M 571.00 299.00 
C 571.23 299.56 572.45 299.85 572.00 301.00
C 570.79 304.09 561.82 301.33 558.00 302.00 C 554.18 302.67 546.63 301.71 542.00 302.00 C 537.37 302.29 530.97 301.89 526.00 302.00 C 521.03 302.11 515.06 302.00 510.00 302.00
C 506.00 302.00 502.00 302.00 498.00 302.00
C 494.71 302.00 491.27 302.30 488.00 302.00
C 480.21 299.06 481.29 284.50 477.02 277.98 C 472.76 271.45 470.45 260.79 466.69 253.31 C 462.94 245.82 460.72 236.06 456.69 228.31 C 452.67 220.55 451.06 210.81 447.02 202.98 C 442.99 195.14 441.00 185.74 437.00 178.00
C 437.50 182.50 436.00 190.60 436.00 196.00
C 436.00 199.00 436.00 202.00 436.00 205.00
C 436.00 210.00 436.00 215.00 436.00 220.00
C 436.00 224.66 435.91 229.34 436.00 234.00
C 436.35 251.68 437.00 269.95 437.00 288.00
C 437.00 291.62 437.33 295.40 437.00 299.00
C 436.75 303.49 424.21 299.79 421.00 301.00
C 421.00 293.67 421.00 286.33 421.00 279.00
C 421.00 278.00 421.00 277.00 421.00 276.00
C 418.89 266.38 420.00 254.40 420.00 244.00
C 420.00 237.67 420.00 231.33 420.00 225.00
C 420.00 213.17 420.83 200.01 419.00 189.00
C 410.07 230.72 391.78 276.49 353.00 301.00
C 347.22 302.41 339.96 300.59 334.00 301.00 C 328.04 301.41 320.89 301.33 315.00 301.00 C 309.11 300.67 301.52 302.28 296.00 301.00 C 290.48 299.72 280.59 303.89 276.00 301.00
C 273.63 299.51 281.79 289.10 283.31 285.31 C 284.83 281.51 290.33 274.45 292.77 269.77 C 295.21 265.09 299.18 258.15 302.25 253.25 C 305.33 248.36 308.28 242.48 311.30 237.30 C 314.32 232.13 317.51 226.97 320.75 221.75 C 324.00 216.54 326.54 210.10 329.92 204.92 C 333.31 199.74 336.05 194.54 339.25 189.25 C 342.46 183.96 345.70 178.16 348.77 172.77 C 351.84 167.38 354.90 162.29 357.92 156.92 C 360.94 151.55 364.21 146.63 367.25 141.25 C 370.30 135.88 373.53 130.06 376.77 124.77 C 380.01 119.48 382.50 114.04 385.77 108.77 C 389.04 103.50 391.99 98.40 394.92 92.92 C 397.86 87.45 401.73 82.18 404.75 76.75 C 407.77 71.33 410.67 66.20 413.77 60.77 C 416.87 55.34 420.38 49.60 423.00 44.00
C 441.60 69.66 456.54 99.71 473.25 127.75 C 489.96 155.78 505.48 184.75 521.92 213.08 C 538.37 241.40 555.62 270.18 571.00 299.00
M 887.00 194.00 
C 887.62 201.05 888.47 208.57 888.00 216.00 C 887.53 223.43 888.44 231.64 888.00 239.00 C 887.56 246.36 888.70 254.91 888.00 262.00 C 887.30 269.09 889.43 278.57 888.00 285.00 C 886.57 291.43 891.43 303.71 887.00 308.00
C 884.07 311.03 869.40 309.22 865.00 309.00 C 860.60 308.78 844.37 311.38 842.00 308.00
C 838.78 303.40 843.41 293.92 842.00 288.00 C 840.59 282.08 842.71 273.50 842.00 267.00 C 841.29 260.50 842.41 253.93 842.00 247.00 C 841.59 240.07 842.42 233.34 842.00 226.00 C 841.58 218.66 842.72 214.18 842.00 206.00 C 841.28 197.82 842.60 197.69 840.67 188.33 C 838.74 178.97 834.20 168.32 825.30 162.70 C 816.41 157.07 803.53 154.79 793.26 156.40 C 782.98 158.02 774.63 163.47 768.08 172.08 C 761.53 180.69 759.77 194.53 759.01 205.01 C 758.24 215.49 759.44 216.67 759.00 225.00 C 758.56 233.33 759.45 238.60 759.00 246.00 C 758.55 253.40 759.78 259.28 759.00 266.00 C 758.22 272.72 760.54 280.94 759.00 287.00 C 757.46 293.06 762.34 303.23 759.00 308.00
C 756.80 311.14 741.02 308.98 737.00 309.00 C 732.98 309.02 717.17 311.09 715.00 308.00
C 711.69 303.27 716.52 293.00 715.00 287.00 C 713.48 281.00 715.74 272.61 715.00 266.00 C 714.26 259.39 715.45 251.96 715.00 245.00 C 714.55 238.04 715.47 231.28 715.00 224.00 C 714.53 216.72 715.80 210.79 715.00 203.00 C 714.20 195.21 713.96 193.80 712.22 184.78 C 710.49 175.76 705.89 165.60 696.30 160.70 C 686.71 155.79 671.52 155.29 661.33 158.33 C 651.13 161.36 643.56 169.31 639.70 178.70 C 635.83 188.08 636.19 187.57 636.00 197.00
C 635.63 215.31 637.14 233.71 636.00 252.00 C 634.86 270.29 638.62 289.87 636.00 308.00
C 635.95 308.35 635.35 308.95 635.00 309.00
C 629.49 309.79 618.15 309.66 613.00 309.00 C 607.85 308.34 593.68 311.83 591.00 308.00
C 587.71 303.30 592.48 292.96 591.00 287.00 C 589.52 281.04 591.67 272.53 591.00 266.00 C 590.33 259.47 591.30 251.79 591.00 245.00 C 590.70 238.21 591.14 230.90 591.00 224.00 C 590.86 217.10 591.06 209.96 591.00 203.00 C 590.94 196.04 591.03 188.98 591.00 182.00 C 590.97 175.02 591.01 167.99 591.00 161.00 C 590.99 154.01 591.01 147.00 591.00 140.00 C 590.99 133.00 591.01 126.00 591.00 119.00
C 601.96 117.49 609.73 121.01 621.00 119.00 C 632.27 116.99 633.89 126.04 634.00 136.00
C 664.73 106.34 721.41 109.51 746.00 146.00
C 766.45 117.19 803.99 111.70 836.23 119.77 C 868.47 127.84 889.25 160.91 887.00 194.00
M 978.00 288.00 
C 978.00 320.00 978.00 352.00 978.00 384.00
C 963.00 384.00 948.00 384.00 933.00 384.00
C 933.00 295.67 933.00 207.33 933.00 119.00
C 944.64 117.73 953.04 120.69 965.00 119.00 C 976.96 117.31 975.57 131.64 976.00 141.00
C 1008.88 107.09 1072.65 107.00 1103.30 144.70 C 1133.96 182.40 1135.00 240.90 1106.08 280.08 C 1077.17 319.26 1011.79 321.59 978.00 288.00
M 1325.00 382.00 
C 1321.78 386.42 1308.51 385.63 1303.00 385.00 C 1297.49 384.37 1280.89 387.99 1280.00 382.00
C 1279.24 376.90 1286.78 369.68 1287.93 363.93 C 1289.07 358.17 1294.43 351.36 1296.31 345.31 C 1298.18 339.25 1301.57 333.15 1303.98 326.98 C 1306.38 320.80 1309.85 314.69 1312.32 308.32 C 1314.79 301.95 1312.13 295.11 1309.03 288.98 C 1305.92 282.84 1303.78 276.15 1301.03 269.97 C 1298.27 263.80 1295.60 257.02 1293.22 250.78 C 1290.85 244.53 1287.79 239.04 1285.23 232.77 C 1282.66 226.50 1280.45 219.53 1277.68 213.32 C 1274.91 207.12 1272.47 201.30 1270.03 194.98 C 1267.58 188.65 1264.36 182.33 1262.07 175.93 C 1259.79 169.53 1256.78 164.13 1254.23 157.77 C 1251.67 151.42 1249.26 144.68 1246.68 138.32 C 1244.10 131.96 1240.64 125.58 1239.00 119.00
C 1252.42 117.32 1264.44 121.25 1278.00 119.00 C 1291.56 116.75 1292.37 130.04 1296.32 139.68 C 1300.27 149.31 1303.40 158.32 1307.26 167.74 C 1311.11 177.17 1314.19 186.61 1317.93 196.07 C 1321.66 205.54 1324.80 213.42 1328.32 222.68 C 1331.84 231.94 1336.12 241.45 1339.00 251.00
C 1357.13 207.67 1374.43 163.16 1391.00 119.00
C 1407.00 119.00 1423.00 119.00 1439.00 119.00
C 1401.18 206.94 1363.39 294.46 1325.00 382.00 Z"/>
</g>
<g fill="None" fill-opacity="0.0" stroke="#F1F0E9" stroke-opacity="0.97" stroke-width="0.3"><path d="
M 1210.00 36.00 
C 1196.92 35.18 1187.43 37.10 1174.00 36.00 C 1160.57 34.90 1165.41 51.06 1165.00 62.00 C 1164.59 72.94 1165.18 85.57 1165.00 97.00 C 1164.82 108.43 1165.08 121.37 1165.00 133.00 C 1164.92 144.63 1165.04 156.32 1165.00 168.00 C 1164.96 179.68 1165.02 191.25 1165.00 203.00 C 1164.98 214.75 1165.01 227.24 1165.00 239.00 C 1164.99 250.76 1165.00 262.28 1165.00 274.00 C 1165.00 285.72 1165.00 297.30 1165.00 309.00
C 1180.00 309.00 1195.00 309.00 1210.00 309.00
C 1210.01 218.00 1209.99 127.00 1210.00 36.00 Z"/>
</g>
<g fill="None" fill-opacity="0.0" stroke="#F2F1EA" stroke-opacity="0.97" stroke-width="0.3"><path d="
M 165.00 311.00 
C 170.98 310.42 178.09 310.43 184.00 311.00
C 233.59 310.24 281.54 278.21 300.00 231.00
C 287.07 226.79 274.14 222.53 261.00 219.00
C 238.72 272.81 162.95 288.79 118.23 253.77 C 73.51 218.75 71.02 142.65 111.75 103.75 C 152.49 64.86 231.08 74.88 257.00 126.00
C 270.47 123.50 282.82 117.36 296.00 114.00
C 284.44 85.00 261.66 65.76 233.08 52.92 C 204.50 40.08 160.20 36.59 130.02 47.02 C 99.85 57.46 77.38 71.45 58.30 98.30 C 39.23 125.16 32.51 161.51 36.02 193.98 C 39.54 226.44 54.31 251.61 77.75 275.25 C 101.19 298.88 133.32 306.14 165.00 311.00 Z"/>
</g>
<g fill="None" fill-opacity="0.0" stroke="#37AE7F" stroke-opacity="0.98" stroke-width="0.3"><path d="
M 276.00 301.00 
C 287.67 297.77 301.61 301.87 314.00 300.00 C 326.39 298.13 341.64 302.71 353.00 301.00
C 391.78 276.49 410.07 230.72 419.00 189.00
C 420.83 200.01 420.00 213.17 420.00 225.00
C 420.55 230.70 421.00 237.62 421.00 244.00
C 421.00 247.33 421.00 250.67 421.00 254.00
C 421.74 261.66 422.00 270.65 422.00 279.00
C 422.00 286.00 422.00 293.00 422.00 300.00
C 426.50 299.36 432.33 301.30 436.00 299.00
C 435.65 295.18 436.71 291.03 437.00 288.00
C 437.00 269.95 436.35 251.68 436.00 234.00
C 435.50 229.89 435.00 224.77 435.00 220.00
C 435.00 215.00 435.00 210.00 435.00 205.00
C 435.00 202.00 435.00 199.00 435.00 196.00
C 435.00 189.00 435.00 182.00 435.00 175.00
C 436.01 175.55 436.44 176.98 437.00 178.00
C 441.00 185.74 442.99 195.14 447.02 202.98 C 451.06 210.81 452.67 220.55 456.69 228.31 C 460.72 236.06 462.94 245.82 466.69 253.31 C 470.45 260.79 472.76 271.45 477.02 277.98 C 481.29 284.50 480.21 299.06 488.00 302.00
C 487.96 302.00 488.00 301.00 488.00 301.00
C 488.15 301.22 500.78 299.11 506.00 300.00 C 511.22 300.89 521.82 299.21 528.00 300.00 C 534.18 300.79 543.62 298.78 550.00 300.00 C 556.38 301.22 565.71 297.96 571.00 299.00
C 555.62 270.18 538.37 241.40 521.92 213.08 C 505.48 184.75 489.96 155.78 473.25 127.75 C 456.54 99.71 441.60 69.66 423.00 44.00
C 420.38 49.60 416.87 55.34 413.77 60.77 C 410.67 66.20 407.77 71.33 404.75 76.75 C 401.73 82.18 397.86 87.45 394.92 92.92 C 391.99 98.40 389.04 103.50 385.77 108.77 C 382.50 114.04 380.01 119.48 376.77 124.77 C 373.53 130.06 370.30 135.88 367.25 141.25 C 364.21 146.63 360.94 151.55 357.92 156.92 C 354.90 162.29 351.84 167.38 348.77 172.77 C 345.70 178.16 342.46 183.96 339.25 189.25 C 336.05 194.54 333.31 199.74 329.92 204.92 C 326.54 210.10 324.00 216.54 320.75 221.75 C 317.51 226.97 314.32 232.13 311.30 237.30 C 308.28 242.48 305.33 248.36 302.25 253.25 C 299.18 258.15 295.21 265.09 292.77 269.77 C 290.33 274.45 284.83 281.51 283.31 285.31 C 281.79 289.10 273.63 299.51 276.00 301.00 Z"/>
</g>
<g fill="None" fill-opacity="0.0" stroke="#F2F1EA" stroke-opacity="0.98" stroke-width="0.3"><path d="
M 591.00 308.00 
C 605.11 309.52 619.96 305.98 634.00 308.00
C 631.49 296.71 634.88 283.60 634.00 272.00 C 633.12 260.40 633.85 247.65 634.00 236.00 C 634.15 224.35 632.34 210.69 635.00 200.00
C 635.11 198.67 635.84 197.77 636.00 197.00
C 636.19 187.57 635.83 188.08 639.70 178.70 C 643.56 169.31 651.13 161.36 661.33 158.33 C 671.52 155.29 686.71 155.79 696.30 160.70 C 705.89 165.60 710.49 175.76 712.22 184.78 C 713.96 193.80 714.20 195.21 715.00 203.00 C 715.80 210.79 714.53 216.72 715.00 224.00 C 715.47 231.28 714.55 238.04 715.00 245.00 C 715.45 251.96 714.26 259.39 715.00 266.00 C 715.74 272.61 713.48 281.00 715.00 287.00 C 716.52 293.00 711.69 303.27 715.00 308.00
C 729.67 308.00 744.33 308.00 759.00 308.00
C 762.34 303.23 757.46 293.06 759.00 287.00 C 760.54 280.94 758.22 272.72 759.00 266.00 C 759.78 259.28 758.55 253.40 759.00 246.00 C 759.45 238.60 758.56 233.33 759.00 225.00 C 759.44 216.67 758.24 215.49 759.01 205.01 C 759.77 194.53 761.53 180.69 768.08 172.08 C 774.63 163.47 782.98 158.02 793.26 156.40 C 803.53 154.79 816.41 157.07 825.30 162.70 C 834.20 168.32 838.74 178.97 840.67 188.33 C 842.60 197.69 841.28 197.82 842.00 206.00 C 842.72 214.18 841.58 218.66 842.00 226.00 C 842.42 233.34 841.59 240.07 842.00 247.00 C 842.41 253.93 841.29 260.50 842.00 267.00 C 842.71 273.50 840.59 282.08 842.00 288.00 C 843.41 293.92 838.78 303.40 842.00 308.00
C 856.66 308.00 871.34 308.00 886.00 308.00
C 884.29 289.28 886.52 269.79 886.00 251.00 C 885.48 232.21 885.26 211.95 887.00 194.00
C 889.25 160.91 868.47 127.84 836.23 119.77 C 803.99 111.70 766.45 117.19 746.00 146.00
C 721.41 109.51 664.73 106.34 634.00 136.00
C 633.89 126.04 632.27 116.99 621.00 119.00 C 609.73 121.01 601.96 117.49 591.00 119.00
C 591.01 126.00 590.99 133.00 591.00 140.00 C 591.01 147.00 590.99 154.01 591.00 161.00 C 591.01 167.99 590.97 175.02 591.00 182.00 C 591.03 188.98 590.94 196.04 591.00 203.00 C 591.06 209.96 590.86 217.10 591.00 224.00 C 591.14 230.90 590.70 238.21 591.00 245.00 C 591.30 251.79 590.33 259.47 591.00 266.00 C 591.67 272.53 589.52 281.04 591.00 287.00 C 592.48 292.96 587.71 303.30 591.00 308.00 Z"/>
</g>
<g fill="None" fill-opacity="0.0" stroke="#F1F1EA" stroke-opacity="0.98" stroke-width="0.3"><path d="
M 978.00 288.00 
C 1011.79 321.59 1077.17 319.26 1106.08 280.08 C 1135.00 240.90 1133.96 182.40 1103.30 144.70 C 1072.65 107.00 1008.88 107.09 976.00 141.00
C 975.57 131.64 976.96 117.31 965.00 119.00 C 953.04 120.69 944.64 117.73 933.00 119.00
C 933.00 207.33 933.00 295.67 933.00 384.00
C 948.00 384.00 963.00 384.00 978.00 384.00
C 978.00 352.00 978.00 320.00 978.00 288.00
M 1019.00 156.00 
C 1063.76 147.24 1086.43 196.75 1075.02 236.02 C 1063.62 275.30 1007.79 282.24 987.08 248.92 C 966.37 215.59 978.69 163.89 1019.00 156.00 Z"/>
</g>
<g fill="None" fill-opacity="0.0" stroke="#F2F1EA" stroke-opacity="0.97" stroke-width="0.3"><path d="
M 1280.00 382.00 
C 1286.37 382.91 1295.38 384.18 1302.00 383.00 C 1308.62 381.82 1319.48 385.95 1325.00 382.00
C 1363.39 294.46 1401.18 206.94 1439.00 119.00
C 1423.00 119.00 1407.00 119.00 1391.00 119.00
C 1374.43 163.16 1357.13 207.67 1339.00 251.00
C 1336.12 241.45 1331.84 231.94 1328.32 222.68 C 1324.80 213.42 1321.66 205.54 1317.93 196.07 C 1314.19 186.61 1311.11 177.17 1307.26 167.74 C 1303.40 158.32 1300.27 149.31 1296.32 139.68 C 1292.37 130.04 1291.56 116.75 1278.00 119.00 C 1264.44 121.25 1252.42 117.32 1239.00 119.00
C 1240.64 125.58 1244.10 131.96 1246.68 138.32 C 1249.26 144.68 1251.67 151.42 1254.23 157.77 C 1256.78 164.13 1259.79 169.53 1262.07 175.93 C 1264.36 182.33 1267.58 188.65 1270.03 194.98 C 1272.47 201.30 1274.91 207.12 1277.68 213.32 C 1280.45 219.53 1282.66 226.50 1285.23 232.77 C 1287.79 239.04 1290.85 244.53 1293.22 250.78 C 1295.60 257.02 1298.27 263.80 1301.03 269.97 C 1303.78 276.15 1305.92 282.84 1309.03 288.98 C 1312.13 295.11 1314.79 301.95 1312.32 308.32 C 1309.85 314.69 1306.38 320.80 1303.98 326.98 C 1301.57 333.15 1298.18 339.25 1296.31 345.31 C 1294.43 351.36 1289.07 358.17 1287.93 363.93 C 1286.78 369.68 1279.24 376.90 1280.00 382.00 Z"/>
</g>
<g fill="None" fill-opacity="0.0" stroke="#000000" stroke-opacity="0.00" stroke-width="0.3"><path d="
M 1019.00 156.00 
C 978.69 163.89 966.37 215.59 987.08 248.92 C 1007.79 282.24 1063.62 275.30 1075.02 236.02 C 1086.43 196.75 1063.76 147.24 1019.00 156.00 Z"/>
</g>
<g fill="None" fill-opacity="0.0" stroke="#0F492D" stroke-opacity="0.05" stroke-width="0.3"><path d="
M 435.00 196.00 
C 435.00 195.96 436.00 196.00 436.00 196.00
C 436.00 190.60 437.50 182.50 437.00 178.00
C 436.44 176.98 436.01 175.55 435.00 175.00
C 435.00 182.00 435.00 189.00 435.00 196.00 Z"/>
</g>
<g fill="None" fill-opacity="0.0" stroke="#FFFFFF" stroke-opacity="0.40" stroke-width="0.3"><path d="
M 886.00 308.00 
C 886.50 308.00 887.00 308.00 887.00 308.00
C 891.43 303.71 886.57 291.43 888.00 285.00 C 889.43 278.57 887.30 269.09 888.00 262.00 C 888.70 254.91 887.56 246.36 888.00 239.00 C 888.44 231.64 887.53 223.43 888.00 216.00 C 888.47 208.57 887.62 201.05 887.00 194.00
C 885.26 211.95 885.48 232.21 886.00 251.00 C 886.52 269.79 884.29 289.28 886.00 308.00 Z"/>
</g>
<g fill="None" fill-opacity="0.0" stroke="#22BA5F" stroke-opacity="0.18" stroke-width="0.3"><path d="
M 435.00 205.00 
C 435.00 204.96 436.00 205.00 436.00 205.00
C 436.00 202.00 436.00 199.00 436.00 196.00
C 436.00 196.00 435.00 195.96 435.00 196.00
C 435.00 199.00 435.00 202.00 435.00 205.00 Z"/>
</g>
<g fill="None" fill-opacity="0.0" stroke="#B0B098" stroke-opacity="0.04" stroke-width="0.3"><path d="
M 635.00 200.00 
C 633.53 217.19 634.28 236.85 635.00 254.00 C 635.72 271.15 631.27 292.21 636.00 308.00
C 638.62 289.87 634.86 270.29 636.00 252.00 C 637.14 233.71 635.63 215.31 636.00 197.00
C 635.84 197.77 635.11 198.67 635.00 200.00 Z"/>
</g>
<g fill="None" fill-opacity="0.0" stroke="#FFFFFF" stroke-opacity="0.89" stroke-width="0.3"><path d="
M 634.00 308.00 
C 634.35 308.05 634.78 308.96 635.00 309.00
C 635.35 308.95 635.95 308.35 636.00 308.00
C 631.27 292.21 635.72 271.15 635.00 254.00 C 634.28 236.85 633.53 217.19 635.00 200.00
C 632.34 210.69 634.15 224.35 634.00 236.00 C 633.85 247.65 633.12 260.40 634.00 272.00 C 634.88 283.60 631.49 296.71 634.00 308.00 Z"/>
</g>
<g fill="None" fill-opacity="0.0" stroke="#27B467" stroke-opacity="0.33" stroke-width="0.3"><path d="
M 435.00 220.00 
C 435.00 219.96 436.00 220.00 436.00 220.00
C 436.00 215.00 436.00 210.00 436.00 205.00
C 436.00 205.00 435.00 204.96 435.00 205.00
C 435.00 210.00 435.00 215.00 435.00 220.00 Z"/>
</g>
<g fill="None" fill-opacity="0.0" stroke="#2DA870" stroke-opacity="0.52" stroke-width="0.3"><path d="
M 436.00 234.00 
C 435.91 229.34 436.00 224.66 436.00 220.00
C 436.00 220.00 435.00 219.96 435.00 220.00
C 435.00 224.77 435.50 229.89 436.00 234.00 Z"/>
</g>
<g fill="None" fill-opacity="0.0" stroke="#22A958" stroke-opacity="0.13" stroke-width="0.3"><path d="
M 420.00 244.00 
C 420.00 243.96 421.00 244.00 421.00 244.00
C 421.00 237.62 420.55 230.70 420.00 225.00
C 420.00 231.33 420.00 237.67 420.00 244.00 Z"/>
</g>
<g fill="None" fill-opacity="0.0" stroke="#074124" stroke-opacity="0.03" stroke-width="0.3"><path d="
M 421.00 276.00 
C 421.00 268.67 421.00 261.33 421.00 254.00
C 421.00 250.67 421.00 247.33 421.00 244.00
C 421.00 244.00 420.00 243.96 420.00 244.00
C 420.00 254.40 418.89 266.38 421.00 276.00 Z"/>
</g>
<g fill="None" fill-opacity="0.0" stroke="#37C585" stroke-opacity="0.79" stroke-width="0.3"><path d="
M 421.00 276.00 
C 421.00 277.00 421.00 278.00 421.00 279.00
C 421.27 279.25 422.00 279.00 422.00 279.00
C 422.00 270.65 421.74 261.66 421.00 254.00
C 421.00 261.33 421.00 268.67 421.00 276.00 Z"/>
</g>
<g fill="None" fill-opacity="0.0" stroke="#35C882" stroke-opacity="0.62" stroke-width="0.3"><path d="
M 437.00 299.00 
C 437.00 299.04 436.00 299.00 436.00 299.00
C 432.33 301.30 426.50 299.36 422.00 300.00
C 422.00 293.00 422.00 286.00 422.00 279.00
C 422.00 279.00 421.27 279.25 421.00 279.00
C 421.00 286.33 421.00 293.67 421.00 301.00
C 424.21 299.79 436.75 303.49 437.00 299.00 Z"/>
</g>
<g fill="None" fill-opacity="0.0" stroke="#2BD17A" stroke-opacity="0.42" stroke-width="0.3"><path d="
M 436.00 299.00 
C 436.00 299.00 437.00 299.04 437.00 299.00
C 437.33 295.40 437.00 291.62 437.00 288.00
C 436.71 291.03 435.65 295.18 436.00 299.00 Z"/>
</g>
<g fill="None" fill-opacity="0.0" stroke="#39BF88" stroke-opacity="0.78" stroke-width="0.3"><path d="
M 488.00 301.00 
C 491.27 300.70 494.71 301.00 498.00 301.00
C 502.00 301.00 506.00 301.00 510.00 301.00
C 514.90 301.00 520.13 301.21 525.00 301.00 C 529.87 300.79 536.35 301.51 541.00 301.00 C 545.65 300.49 552.00 302.24 556.00 301.00 C 560.00 299.76 569.26 303.61 572.00 301.00
C 572.45 299.85 571.23 299.56 571.00 299.00
C 565.71 297.96 556.38 301.22 550.00 300.00 C 543.62 298.78 534.18 300.79 528.00 300.00 C 521.82 299.21 511.22 300.89 506.00 300.00 C 500.78 299.11 488.15 301.22 488.00 301.00 Z"/>
</g>
<g fill="None" fill-opacity="0.0" stroke="#2CCB77" stroke-opacity="0.42" stroke-width="0.3"><path d="
M 276.00 301.00 
C 280.59 303.89 290.48 299.72 296.00 301.00 C 301.52 302.28 309.11 300.67 315.00 301.00 C 320.89 301.33 328.04 301.41 334.00 301.00 C 339.96 300.59 347.22 302.41 353.00 301.00
C 341.64 302.71 326.39 298.13 314.00 300.00 C 301.61 301.87 287.67 297.77 276.00 301.00 Z"/>
</g>
<g fill="None" fill-opacity="0.0" stroke="#00FFFF" stroke-opacity="0.00" stroke-width="0.3"><path d="
M 488.00 302.00 
C 491.27 302.30 494.71 302.00 498.00 302.00
C 497.96 302.00 498.00 301.00 498.00 301.00
C 494.71 301.00 491.27 300.70 488.00 301.00
C 488.00 301.00 487.96 302.00 488.00 302.00 Z"/>
</g>
<g fill="None" fill-opacity="0.0" stroke="#008080" stroke-opacity="0.01" stroke-width="0.3"><path d="
M 498.00 302.00 
C 502.00 302.00 506.00 302.00 510.00 302.00
C 509.96 302.00 510.00 301.00 510.00 301.00
C 506.00 301.00 502.00 301.00 498.00 301.00
C 498.00 301.00 497.96 302.00 498.00 302.00 Z"/>
</g>
<g fill="None" fill-opacity="0.0" stroke="#3B3B3B" stroke-opacity="0.02" stroke-width="0.3"><path d="
M 510.00 302.00 
C 515.06 302.00 521.03 302.11 526.00 302.00 C 530.97 301.89 537.37 302.29 542.00 302.00 C 546.63 301.71 554.18 302.67 558.00 302.00 C 561.82 301.33 570.79 304.09 572.00 301.00
C 569.26 303.61 560.00 299.76 556.00 301.00 C 552.00 302.24 545.65 300.49 541.00 301.00 C 536.35 301.51 529.87 300.79 525.00 301.00 C 520.13 301.21 514.90 301.00 510.00 301.00
C 510.00 301.00 509.96 302.00 510.00 302.00 Z"/>
</g>
<g fill="None" fill-opacity="0.0" stroke="#717169" stroke-opacity="0.13" stroke-width="0.3"><path d="
M 635.00 309.00 
C 634.78 308.96 634.35 308.05 634.00 308.00
C 619.96 305.98 605.11 309.52 591.00 308.00
C 593.68 311.83 607.85 308.34 613.00 309.00 C 618.15 309.66 629.49 309.79 635.00 309.00 Z"/>
</g>
<g fill="None" fill-opacity="0.0" stroke="#717169" stroke-opacity="0.13" stroke-width="0.3"><path d="
M 759.00 308.00 
C 744.33 308.00 729.67 308.00 715.00 308.00
C 717.17 311.09 732.98 309.02 737.00 309.00 C 741.02 308.98 756.80 311.14 759.00 308.00 Z"/>
</g>
<g fill="None" fill-opacity="0.0" stroke="#717169" stroke-opacity="0.13" stroke-width="0.3"><path d="
M 887.00 308.00 
C 887.00 308.00 886.50 308.00 886.00 308.00
C 871.34 308.00 856.66 308.00 842.00 308.00
C 844.37 311.38 860.60 308.78 865.00 309.00 C 869.40 309.22 884.07 311.03 887.00 308.00 Z"/>
</g>
<g fill="None" fill-opacity="0.0" stroke="#F7F7F6" stroke-opacity="0.76" stroke-width="0.3"><path d="
M 165.00 311.00 
C 166.18 311.18 166.94 311.79 168.00 312.00
C 170.20 312.14 177.87 312.13 180.00 312.00
C 181.44 311.76 182.42 311.17 184.00 311.00
C 178.09 310.43 170.98 310.42 165.00 311.00 Z"/>
</g>
<g fill="None" fill-opacity="0.0" stroke="#8C8D87" stroke-opacity="0.03" stroke-width="0.3"><path d="
M 168.00 312.00 
C 171.24 312.64 176.74 312.54 180.00 312.00
C 177.87 312.13 170.20 312.14 168.00 312.00 Z"/>
</g>
<g fill="None" fill-opacity="0.0" stroke="#FCFCFC" stroke-opacity="0.39" stroke-width="0.3"><path d="
M 1325.00 382.00 
C 1319.48 385.95 1308.62 381.82 1302.00 383.00 C 1295.38 384.18 1286.37 382.91 1280.00 382.00
C 1280.89 387.99 1297.49 384.37 1303.00 385.00 C 1308.51 385.63 1321.78 386.42 1325.00 382.00 Z"/>
</g>
<g fill="#000000" fill-opacity="0.00" stroke="None">
<path d="
M 0.00 429.00 
L 1478.00 429.00
L 1478.00 0.00
L 0.00 0.00
L 0.00 429.00
M 1210.00 36.00 
C 1209.99 127.00 1210.01 218.00 1210.00 309.00
C 1195.00 309.00 1180.00 309.00 1165.00 309.00
C 1165.00 297.30 1165.00 285.72 1165.00 274.00 C 1165.00 262.28 1164.99 250.76 1165.00 239.00 C 1165.01 227.24 1164.98 214.75 1165.00 203.00 C 1165.02 191.25 1164.96 179.68 1165.00 168.00 C 1165.04 156.32 1164.92 144.63 1165.00 133.00 C 1165.08 121.37 1164.82 108.43 1165.00 97.00 C 1165.18 85.57 1164.59 72.94 1165.00 62.00 C 1165.41 51.06 1160.57 34.90 1174.00 36.00 C 1187.43 37.10 1196.92 35.18 1210.00 36.00
M 184.00 311.00 
C 182.42 311.17 181.44 311.76 180.00 312.00
C 176.74 312.54 171.24 312.64 168.00 312.00
C 166.94 311.79 166.18 311.18 165.00 311.00
C 133.32 306.14 101.19 298.88 77.75 275.25 C 54.31 251.61 39.54 226.44 36.02 193.98 C 32.51 161.51 39.23 125.16 58.30 98.30 C 77.38 71.45 99.85 57.46 130.02 47.02 C 160.20 36.59 204.50 40.08 233.08 52.92 C 261.66 65.76 284.44 85.00 296.00 114.00
C 282.82 117.36 270.47 123.50 257.00 126.00
C 231.08 74.88 152.49 64.86 111.75 103.75 C 71.02 142.65 73.51 218.75 118.23 253.77 C 162.95 288.79 238.72 272.81 261.00 219.00
C 274.14 222.53 287.07 226.79 300.00 231.00
C 281.54 278.21 233.59 310.24 184.00 311.00
M 571.00 299.00 
C 571.23 299.56 572.45 299.85 572.00 301.00
C 570.79 304.09 561.82 301.33 558.00 302.00 C 554.18 302.67 546.63 301.71 542.00 302.00 C 537.37 302.29 530.97 301.89 526.00 302.00 C 521.03 302.11 515.06 302.00 510.00 302.00
C 506.00 302.00 502.00 302.00 498.00 302.00
C 494.71 302.00 491.27 302.30 488.00 302.00
C 480.21 299.06 481.29 284.50 477.02 277.98 C 472.76 271.45 470.45 260.79 466.69 253.31 C 462.94 245.82 460.72 236.06 456.69 228.31 C 452.67 220.55 451.06 210.81 447.02 202.98 C 442.99 195.14 441.00 185.74 437.00 178.00
C 437.50 182.50 436.00 190.60 436.00 196.00
C 436.00 199.00 436.00 202.00 436.00 205.00
C 436.00 210.00 436.00 215.00 436.00 220.00
C 436.00 224.66 435.91 229.34 436.00 234.00
C 436.35 251.68 437.00 269.95 437.00 288.00
C 437.00 291.62 437.33 295.40 437.00 299.00
C 436.75 303.49 424.21 299.79 421.00 301.00
C 421.00 293.67 421.00 286.33 421.00 279.00
C 421.00 278.00 421.00 277.00 421.00 276.00
C 418.89 266.38 420.00 254.40 420.00 244.00
C 420.00 237.67 420.00 231.33 420.00 225.00
C 420.00 213.17 420.83 200.01 419.00 189.00
C 410.07 230.72 391.78 276.49 353.00 301.00
C 347.22 302.41 339.96 300.59 334.00 301.00 C 328.04 301.41 320.89 301.33 315.00 301.00 C 309.11 300.67 301.52 302.28 296.00 301.00 C 290.48 299.72 280.59 303.89 276.00 301.00
C 273.63 299.51 281.79 289.10 283.31 285.31 C 284.83 281.51 290.33 274.45 292.77 269.77 C 295.21 265.09 299.18 258.15 302.25 253.25 C 305.33 248.36 308.28 242.48 311.30 237.30 C 314.32 232.13 317.51 226.97 320.75 221.75 C 324.00 216.54 326.54 210.10 329.92 204.92 C 333.31 199.74 336.05 194.54 339.25 189.25 C 342.46 183.96 345.70 178.16 348.77 172.77 C 351.84 167.38 354.90 162.29 357.92 156.92 C 360.94 151.55 364.21 146.63 367.25 141.25 C 370.30 135.88 373.53 130.06 376.77 124.77 C 380.01 119.48 382.50 114.04 385.77 108.77 C 389.04 103.50 391.99 98.40 394.92 92.92 C 397.86 87.45 401.73 82.18 404.75 76.75 C 407.77 71.33 410.67 66.20 413.77 60.77 C 416.87 55.34 420.38 49.60 423.00 44.00
C 441.60 69.66 456.54 99.71 473.25 127.75 C 489.96 155.78 505.48 184.75 521.92 213.08 C 538.37 241.40 555.62 270.18 571.00 299.00
M 887.00 194.00 
C 887.62 201.05 888.47 208.57 888.00 216.00 C 887.53 223.43 888.44 231.64 888.00 239.00 C 887.56 246.36 888.70 254.91 888.00 262.00 C 887.30 269.09 889.43 278.57 888.00 285.00 C 886.57 291.43 891.43 303.71 887.00 308.00
C 884.07 311.03 869.40 309.22 865.00 309.00 C 860.60 308.78 844.37 311.38 842.00 308.00
C 838.78 303.40 843.41 293.92 842.00 288.00 C 840.59 282.08 842.71 273.50 842.00 267.00 C 841.29 260.50 842.41 253.93 842.00 247.00 C 841.59 240.07 842.42 233.34 842.00 226.00 C 841.58 218.66 842.72 214.18 842.00 206.00 C 841.28 197.82 842.60 197.69 840.67 188.33 C 838.74 178.97 834.20 168.32 825.30 162.70 C 816.41 157.07 803.53 154.79 793.26 156.40 C 782.98 158.02 774.63 163.47 768.08 172.08 C 761.53 180.69 759.77 194.53 759.01 205.01 C 758.24 215.49 759.44 216.67 759.00 225.00 C 758.56 233.33 759.45 238.60 759.00 246.00 C 758.55 253.40 759.78 259.28 759.00 266.00 C 758.22 272.72 760.54 280.94 759.00 287.00 C 757.46 293.06 762.34 303.23 759.00 308.00
C 756.80 311.14 741.02 308.98 737.00 309.00 C 732.98 309.02 717.17 311.09 715.00 308.00
C 711.69 303.27 716.52 293.00 715.00 287.00 C 713.48 281.00 715.74 272.61 715.00 266.00 C 714.26 259.39 715.45 251.96 715.00 245.00 C 714.55 238.04 715.47 231.28 715.00 224.00 C 714.53 216.72 715.80 210.79 715.00 203.00 C 714.20 195.21 713.96 193.80 712.22 184.78 C 710.49 175.76 705.89 165.60 696.30 160.70 C 686.71 155.79 671.52 155.29 661.33 158.33 C 651.13 161.36 643.56 169.31 639.70 178.70 C 635.83 188.08 636.19 187.57 636.00 197.00
C 635.63 215.31 637.14 233.71 636.00 252.00 C 634.86 270.29 638.62 289.87 636.00 308.00
C 635.95 308.35 635.35 308.95 635.00 309.00
C 629.49 309.79 618.15 309.66 613.00 309.00 C 607.85 308.34 593.68 311.83 591.00 308.00
C 587.71 303.30 592.48 292.96 591.00 287.00 C 589.52 281.04 591.67 272.53 591.00 266.00 C 590.33 259.47 591.30 251.79 591.00 245.00 C 590.70 238.21 591.14 230.90 591.00 224.00 C 590.86 217.10 591.06 209.96 591.00 203.00 C 590.94 196.04 591.03 188.98 591.00 182.00 C 590.97 175.02 591.01 167.99 591.00 161.00 C 590.99 154.01 591.01 147.00 591.00 140.00 C 590.99 133.00 591.01 126.00 591.00 119.00
C 601.96 117.49 609.73 121.01 621.00 119.00 C 632.27 116.99 633.89 126.04 634.00 136.00
C 664.73 106.34 721.41 109.51 746.00 146.00
C 766.45 117.19 803.99 111.70 836.23 119.77 C 868.47 127.84 889.25 160.91 887.00 194.00
M 978.00 288.00 
C 978.00 320.00 978.00 352.00 978.00 384.00
C 963.00 384.00 948.00 384.00 933.00 384.00
C 933.00 295.67 933.00 207.33 933.00 119.00
C 944.64 117.73 953.04 120.69 965.00 119.00 C 976.96 117.31 975.57 131.64 976.00 141.00
C 1008.88 107.09 1072.65 107.00 1103.30 144.70 C 1133.96 182.40 1135.00 240.90 1106.08 280.08 C 1077.17 319.26 1011.79 321.59 978.00 288.00
M 1325.00 382.00 
C 1321.78 386.42 1308.51 385.63 1303.00 385.00 C 1297.49 384.37 1280.89 387.99 1280.00 382.00
C 1279.24 376.90 1286.78 369.68 1287.93 363.93 C 1289.07 358.17 1294.43 351.36 1296.31 345.31 C 1298.18 339.25 1301.57 333.15 1303.98 326.98 C 1306.38 320.80 1309.85 314.69 1312.32 308.32 C 1314.79 301.95 1312.13 295.11 1309.03 288.98 C 1305.92 282.84 1303.78 276.15 1301.03 269.97 C 1298.27 263.80 1295.60 257.02 1293.22 250.78 C 1290.85 244.53 1287.79 239.04 1285.23 232.77 C 1282.66 226.50 1280.45 219.53 1277.68 213.32 C 1274.91 207.12 1272.47 201.30 1270.03 194.98 C 1267.58 188.65 1264.36 182.33 1262.07 175.93 C 1259.79 169.53 1256.78 164.13 1254.23 157.77 C 1251.67 151.42 1249.26 144.68 1246.68 138.32 C 1244.10 131.96 1240.64 125.58 1239.00 119.00
C 1252.42 117.32 1264.44 121.25 1278.00 119.00 C 1291.56 116.75 1292.37 130.04 1296.32 139.68 C 1300.27 149.31 1303.40 158.32 1307.26 167.74 C 1311.11 177.17 1314.19 186.61 1317.93 196.07 C 1321.66 205.54 1324.80 213.42 1328.32 222.68 C 1331.84 231.94 1336.12 241.45 1339.00 251.00
C 1357.13 207.67 1374.43 163.16 1391.00 119.00
C 1407.00 119.00 1423.00 119.00 1439.00 119.00
C 1401.18 206.94 1363.39 294.46 1325.00 382.00 Z"/>
</g>
<g fill="#F1F0E9" fill-opacity="0.97" stroke="None">
<path d="
M 1210.00 36.00 
C 1196.92 35.18 1187.43 37.10 1174.00 36.00 C 1160.57 34.90 1165.41 51.06 1165.00 62.00 C 1164.59 72.94 1165.18 85.57 1165.00 97.00 C 1164.82 108.43 1165.08 121.37 1165.00 133.00 C 1164.92 144.63 1165.04 156.32 1165.00 168.00 C 1164.96 179.68 1165.02 191.25 1165.00 203.00 C 1164.98 214.75 1165.01 227.24 1165.00 239.00 C 1164.99 250.76 1165.00 262.28 1165.00 274.00 C 1165.00 285.72 1165.00 297.30 1165.00 309.00
C 1180.00 309.00 1195.00 309.00 1210.00 309.00
C 1210.01 218.00 1209.99 127.00 1210.00 36.00 Z"/>
</g>
<g fill="#F2F1EA" fill-opacity="0.97" stroke="None">
<path d="
M 165.00 311.00 
C 170.98 310.42 178.09 310.43 184.00 311.00
C 233.59 310.24 281.54 278.21 300.00 231.00
C 287.07 226.79 274.14 222.53 261.00 219.00
C 238.72 272.81 162.95 288.79 118.23 253.77 C 73.51 218.75 71.02 142.65 111.75 103.75 C 152.49 64.86 231.08 74.88 257.00 126.00
C 270.47 123.50 282.82 117.36 296.00 114.00
C 284.44 85.00 261.66 65.76 233.08 52.92 C 204.50 40.08 160.20 36.59 130.02 47.02 C 99.85 57.46 77.38 71.45 58.30 98.30 C 39.23 125.16 32.51 161.51 36.02 193.98 C 39.54 226.44 54.31 251.61 77.75 275.25 C 101.19 298.88 133.32 306.14 165.00 311.00 Z"/>
</g>
<g fill="#37AE7F" fill-opacity="0.98" stroke="None">
<path d="
M 276.00 301.00 
C 287.67 297.77 301.61 301.87 314.00 300.00 C 326.39 298.13 341.64 302.71 353.00 301.00
C 391.78 276.49 410.07 230.72 419.00 189.00
C 420.83 200.01 420.00 213.17 420.00 225.00
C 420.55 230.70 421.00 237.62 421.00 244.00
C 421.00 247.33 421.00 250.67 421.00 254.00
C 421.74 261.66 422.00 270.65 422.00 279.00
C 422.00 286.00 422.00 293.00 422.00 300.00
C 426.50 299.36 432.33 301.30 436.00 299.00
C 435.65 295.18 436.71 291.03 437.00 288.00
C 437.00 269.95 436.35 251.68 436.00 234.00
C 435.50 229.89 435.00 224.77 435.00 220.00
C 435.00 215.00 435.00 210.00 435.00 205.00
C 435.00 202.00 435.00 199.00 435.00 196.00
C 435.00 189.00 435.00 182.00 435.00 175.00
C 436.01 175.55 436.44 176.98 437.00 178.00
C 441.00 185.74 442.99 195.14 447.02 202.98 C 451.06 210.81 452.67 220.55 456.69 228.31 C 460.72 236.06 462.94 245.82 466.69 253.31 C 470.45 260.79 472.76 271.45 477.02 277.98 C 481.29 284.50 480.21 299.06 488.00 302.00
C 487.96 302.00 488.00 301.00 488.00 301.00
C 488.15 301.22 500.78 299.11 506.00 300.00 C 511.22 300.89 521.82 299.21 528.00 300.00 C 534.18 300.79 543.62 298.78 550.00 300.00 C 556.38 301.22 565.71 297.96 571.00 299.00
C 555.62 270.18 538.37 241.40 521.92 213.08 C 505.48 184.75 489.96 155.78 473.25 127.75 C 456.54 99.71 441.60 69.66 423.00 44.00
C 420.38 49.60 416.87 55.34 413.77 60.77 C 410.67 66.20 407.77 71.33 404.75 76.75 C 401.73 82.18 397.86 87.45 394.92 92.92 C 391.99 98.40 389.04 103.50 385.77 108.77 C 382.50 114.04 380.01 119.48 376.77 124.77 C 373.53 130.06 370.30 135.88 367.25 141.25 C 364.21 146.63 360.94 151.55 357.92 156.92 C 354.90 162.29 351.84 167.38 348.77 172.77 C 345.70 178.16 342.46 183.96 339.25 189.25 C 336.05 194.54 333.31 199.74 329.92 204.92 C 326.54 210.10 324.00 216.54 320.75 221.75 C 317.51 226.97 314.32 232.13 311.30 237.30 C 308.28 242.48 305.33 248.36 302.25 253.25 C 299.18 258.15 295.21 265.09 292.77 269.77 C 290.33 274.45 284.83 281.51 283.31 285.31 C 281.79 289.10 273.63 299.51 276.00 301.00 Z"/>
</g>
<g fill="#F2F1EA" fill-opacity="0.98" stroke="None">
<path d="
M 591.00 308.00 
C 605.11 309.52 619.96 305.98 634.00 308.00
C 631.49 296.71 634.88 283.60 634.00 272.00 C 633.12 260.40 633.85 247.65 634.00 236.00 C 634.15 224.35 632.34 210.69 635.00 200.00
C 635.11 198.67 635.84 197.77 636.00 197.00
C 636.19 187.57 635.83 188.08 639.70 178.70 C 643.56 169.31 651.13 161.36 661.33 158.33 C 671.52 155.29 686.71 155.79 696.30 160.70 C 705.89 165.60 710.49 175.76 712.22 184.78 C 713.96 193.80 714.20 195.21 715.00 203.00 C 715.80 210.79 714.53 216.72 715.00 224.00 C 715.47 231.28 714.55 238.04 715.00 245.00 C 715.45 251.96 714.26 259.39 715.00 266.00 C 715.74 272.61 713.48 281.00 715.00 287.00 C 716.52 293.00 711.69 303.27 715.00 308.00
C 729.67 308.00 744.33 308.00 759.00 308.00
C 762.34 303.23 757.46 293.06 759.00 287.00 C 760.54 280.94 758.22 272.72 759.00 266.00 C 759.78 259.28 758.55 253.40 759.00 246.00 C 759.45 238.60 758.56 233.33 759.00 225.00 C 759.44 216.67 758.24 215.49 759.01 205.01 C 759.77 194.53 761.53 180.69 768.08 172.08 C 774.63 163.47 782.98 158.02 793.26 156.40 C 803.53 154.79 816.41 157.07 825.30 162.70 C 834.20 168.32 838.74 178.97 840.67 188.33 C 842.60 197.69 841.28 197.82 842.00 206.00 C 842.72 214.18 841.58 218.66 842.00 226.00 C 842.42 233.34 841.59 240.07 842.00 247.00 C 842.41 253.93 841.29 260.50 842.00 267.00 C 842.71 273.50 840.59 282.08 842.00 288.00 C 843.41 293.92 838.78 303.40 842.00 308.00
C 856.66 308.00 871.34 308.00 886.00 308.00
C 884.29 289.28 886.52 269.79 886.00 251.00 C 885.48 232.21 885.26 211.95 887.00 194.00
C 889.25 160.91 868.47 127.84 836.23 119.77 C 803.99 111.70 766.45 117.19 746.00 146.00
C 721.41 109.51 664.73 106.34 634.00 136.00
C 633.89 126.04 632.27 116.99 621.00 119.00 C 609.73 121.01 601.96 117.49 591.00 119.00
C 591.01 126.00 590.99 133.00 591.00 140.00 C 591.01 147.00 590.99 154.01 591.00 161.00 C 591.01 167.99 590.97 175.02 591.00 182.00 C 591.03 188.98 590.94 196.04 591.00 203.00 C 591.06 209.96 590.86 217.10 591.00 224.00 C 591.14 230.90 590.70 238.21 591.00 245.00 C 591.30 251.79 590.33 259.47 591.00 266.00 C 591.67 272.53 589.52 281.04 591.00 287.00 C 592.48 292.96 587.71 303.30 591.00 308.00 Z"/>
</g>
<g fill="#F1F1EA" fill-opacity="0.98" stroke="None">
<path d="
M 978.00 288.00 
C 1011.79 321.59 1077.17 319.26 1106.08 280.08 C 1135.00 240.90 1133.96 182.40 1103.30 144.70 C 1072.65 107.00 1008.88 107.09 976.00 141.00
C 975.57 131.64 976.96 117.31 965.00 119.00 C 953.04 120.69 944.64 117.73 933.00 119.00
C 933.00 207.33 933.00 295.67 933.00 384.00
C 948.00 384.00 963.00 384.00 978.00 384.00
C 978.00 352.00 978.00 320.00 978.00 288.00
M 1019.00 156.00 
C 1063.76 147.24 1086.43 196.75 1075.02 236.02 C 1063.62 275.30 1007.79 282.24 987.08 248.92 C 966.37 215.59 978.69 163.89 1019.00 156.00 Z"/>
</g>
<g fill="#F2F1EA" fill-opacity="0.97" stroke="None">
<path d="
M 1280.00 382.00 
C 1286.37 382.91 1295.38 384.18 1302.00 383.00 C 1308.62 381.82 1319.48 385.95 1325.00 382.00
C 1363.39 294.46 1401.18 206.94 1439.00 119.00
C 1423.00 119.00 1407.00 119.00 1391.00 119.00
C 1374.43 163.16 1357.13 207.67 1339.00 251.00
C 1336.12 241.45 1331.84 231.94 1328.32 222.68 C 1324.80 213.42 1321.66 205.54 1317.93 196.07 C 1314.19 186.61 1311.11 177.17 1307.26 167.74 C 1303.40 158.32 1300.27 149.31 1296.32 139.68 C 1292.37 130.04 1291.56 116.75 1278.00 119.00 C 1264.44 121.25 1252.42 117.32 1239.00 119.00
C 1240.64 125.58 1244.10 131.96 1246.68 138.32 C 1249.26 144.68 1251.67 151.42 1254.23 157.77 C 1256.78 164.13 1259.79 169.53 1262.07 175.93 C 1264.36 182.33 1267.58 188.65 1270.03 194.98 C 1272.47 201.30 1274.91 207.12 1277.68 213.32 C 1280.45 219.53 1282.66 226.50 1285.23 232.77 C 1287.79 239.04 1290.85 244.53 1293.22 250.78 C 1295.60 257.02 1298.27 263.80 1301.03 269.97 C 1303.78 276.15 1305.92 282.84 1309.03 288.98 C 1312.13 295.11 1314.79 301.95 1312.32 308.32 C 1309.85 314.69 1306.38 320.80 1303.98 326.98 C 1301.57 333.15 1298.18 339.25 1296.31 345.31 C 1294.43 351.36 1289.07 358.17 1287.93 363.93 C 1286.78 369.68 1279.24 376.90 1280.00 382.00 Z"/>
</g>
<g fill="#000000" fill-opacity="0.00" stroke="None">
<path d="
M 1019.00 156.00 
C 978.69 163.89 966.37 215.59 987.08 248.92 C 1007.79 282.24 1063.62 275.30 1075.02 236.02 C 1086.43 196.75 1063.76 147.24 1019.00 156.00 Z"/>
</g>
<g fill="#0F492D" fill-opacity="0.05" stroke="None">
<path d="
M 435.00 196.00 
C 435.00 195.96 436.00 196.00 436.00 196.00
C 436.00 190.60 437.50 182.50 437.00 178.00
C 436.44 176.98 436.01 175.55 435.00 175.00
C 435.00 182.00 435.00 189.00 435.00 196.00 Z"/>
</g>
<g fill="#FFFFFF" fill-opacity="0.40" stroke="None">
<path d="
M 886.00 308.00 
C 886.50 308.00 887.00 308.00 887.00 308.00
C 891.43 303.71 886.57 291.43 888.00 285.00 C 889.43 278.57 887.30 269.09 888.00 262.00 C 888.70 254.91 887.56 246.36 888.00 239.00 C 888.44 231.64 887.53 223.43 888.00 216.00 C 888.47 208.57 887.62 201.05 887.00 194.00
C 885.26 211.95 885.48 232.21 886.00 251.00 C 886.52 269.79 884.29 289.28 886.00 308.00 Z"/>
</g>
<g fill="#22BA5F" fill-opacity="0.18" stroke="None">
<path d="
M 435.00 205.00 
C 435.00 204.96 436.00 205.00 436.00 205.00
C 436.00 202.00 436.00 199.00 436.00 196.00
C 436.00 196.00 435.00 195.96 435.00 196.00
C 435.00 199.00 435.00 202.00 435.00 205.00 Z"/>
</g>
<g fill="#B0B098" fill-opacity="0.04" stroke="None">
<path d="
M 635.00 200.00 
C 633.53 217.19 634.28 236.85 635.00 254.00 C 635.72 271.15 631.27 292.21 636.00 308.00
C 638.62 289.87 634.86 270.29 636.00 252.00 C 637.14 233.71 635.63 215.31 636.00 197.00
C 635.84 197.77 635.11 198.67 635.00 200.00 Z"/>
</g>
<g fill="#FFFFFF" fill-opacity="0.89" stroke="None">
<path d="
M 634.00 308.00 
C 634.35 308.05 634.78 308.96 635.00 309.00
C 635.35 308.95 635.95 308.35 636.00 308.00
C 631.27 292.21 635.72 271.15 635.00 254.00 C 634.28 236.85 633.53 217.19 635.00 200.00
C 632.34 210.69 634.15 224.35 634.00 236.00 C 633.85 247.65 633.12 260.40 634.00 272.00 C 634.88 283.60 631.49 296.71 634.00 308.00 Z"/>
</g>
<g fill="#27B467" fill-opacity="0.33" stroke="None">
<path d="
M 435.00 220.00 
C 435.00 219.96 436.00 220.00 436.00 220.00
C 436.00 215.00 436.00 210.00 436.00 205.00
C 436.00 205.00 435.00 204.96 435.00 205.00
C 435.00 210.00 435.00 215.00 435.00 220.00 Z"/>
</g>
<g fill="#2DA870" fill-opacity="0.52" stroke="None">
<path d="
M 436.00 234.00 
C 435.91 229.34 436.00 224.66 436.00 220.00
C 436.00 220.00 435.00 219.96 435.00 220.00
C 435.00 224.77 435.50 229.89 436.00 234.00 Z"/>
</g>
<g fill="#22A958" fill-opacity="0.13" stroke="None">
<path d="
M 420.00 244.00 
C 420.00 243.96 421.00 244.00 421.00 244.00
C 421.00 237.62 420.55 230.70 420.00 225.00
C 420.00 231.33 420.00 237.67 420.00 244.00 Z"/>
</g>
<g fill="#074124" fill-opacity="0.03" stroke="None">
<path d="
M 421.00 276.00 
C 421.00 268.67 421.00 261.33 421.00 254.00
C 421.00 250.67 421.00 247.33 421.00 244.00
C 421.00 244.00 420.00 243.96 420.00 244.00
C 420.00 254.40 418.89 266.38 421.00 276.00 Z"/>
</g>
<g fill="#37C585" fill-opacity="0.79" stroke="None">
<path d="
M 421.00 276.00 
C 421.00 277.00 421.00 278.00 421.00 279.00
C 421.27 279.25 422.00 279.00 422.00 279.00
C 422.00 270.65 421.74 261.66 421.00 254.00
C 421.00 261.33 421.00 268.67 421.00 276.00 Z"/>
</g>
<g fill="#35C882" fill-opacity="0.62" stroke="None">
<path d="
M 437.00 299.00 
C 437.00 299.04 436.00 299.00 436.00 299.00
C 432.33 301.30 426.50 299.36 422.00 300.00
C 422.00 293.00 422.00 286.00 422.00 279.00
C 422.00 279.00 421.27 279.25 421.00 279.00
C 421.00 286.33 421.00 293.67 421.00 301.00
C 424.21 299.79 436.75 303.49 437.00 299.00 Z"/>
</g>
<g fill="#2BD17A" fill-opacity="0.42" stroke="None">
<path d="
M 436.00 299.00 
C 436.00 299.00 437.00 299.04 437.00 299.00
C 437.33 295.40 437.00 291.62 437.00 288.00
C 436.71 291.03 435.65 295.18 436.00 299.00 Z"/>
</g>
<g fill="#39BF88" fill-opacity="0.78" stroke="None">
<path d="
M 488.00 301.00 
C 491.27 300.70 494.71 301.00 498.00 301.00
C 502.00 301.00 506.00 301.00 510.00 301.00
C 514.90 301.00 520.13 301.21 525.00 301.00 C 529.87 300.79 536.35 301.51 541.00 301.00 C 545.65 300.49 552.00 302.24 556.00 301.00 C 560.00 299.76 569.26 303.61 572.00 301.00
C 572.45 299.85 571.23 299.56 571.00 299.00
C 565.71 297.96 556.38 301.22 550.00 300.00 C 543.62 298.78 534.18 300.79 528.00 300.00 C 521.82 299.21 511.22 300.89 506.00 300.00 C 500.78 299.11 488.15 301.22 488.00 301.00 Z"/>
</g>
<g fill="#2CCB77" fill-opacity="0.42" stroke="None">
<path d="
M 276.00 301.00 
C 280.59 303.89 290.48 299.72 296.00 301.00 C 301.52 302.28 309.11 300.67 315.00 301.00 C 320.89 301.33 328.04 301.41 334.00 301.00 C 339.96 300.59 347.22 302.41 353.00 301.00
C 341.64 302.71 326.39 298.13 314.00 300.00 C 301.61 301.87 287.67 297.77 276.00 301.00 Z"/>
</g>
<g fill="#00FFFF" fill-opacity="0.00" stroke="None">
<path d="
M 488.00 302.00 
C 491.27 302.30 494.71 302.00 498.00 302.00
C 497.96 302.00 498.00 301.00 498.00 301.00
C 494.71 301.00 491.27 300.70 488.00 301.00
C 488.00 301.00 487.96 302.00 488.00 302.00 Z"/>
</g>
<g fill="#008080" fill-opacity="0.01" stroke="None">
<path d="
M 498.00 302.00 
C 502.00 302.00 506.00 302.00 510.00 302.00
C 509.96 302.00 510.00 301.00 510.00 301.00
C 506.00 301.00 502.00 301.00 498.00 301.00
C 498.00 301.00 497.96 302.00 498.00 302.00 Z"/>
</g>
<g fill="#3B3B3B" fill-opacity="0.02" stroke="None">
<path d="
M 510.00 302.00 
C 515.06 302.00 521.03 302.11 526.00 302.00 C 530.97 301.89 537.37 302.29 542.00 302.00 C 546.63 301.71 554.18 302.67 558.00 302.00 C 561.82 301.33 570.79 304.09 572.00 301.00
C 569.26 303.61 560.00 299.76 556.00 301.00 C 552.00 302.24 545.65 300.49 541.00 301.00 C 536.35 301.51 529.87 300.79 525.00 301.00 C 520.13 301.21 514.90 301.00 510.00 301.00
C 510.00 301.00 509.96 302.00 510.00 302.00 Z"/>
</g>
<g fill="#717169" fill-opacity="0.13" stroke="None">
<path d="
M 635.00 309.00 
C 634.78 308.96 634.35 308.05 634.00 308.00
C 619.96 305.98 605.11 309.52 591.00 308.00
C 593.68 311.83 607.85 308.34 613.00 309.00 C 618.15 309.66 629.49 309.79 635.00 309.00 Z"/>
</g>
<g fill="#717169" fill-opacity="0.13" stroke="None">
<path d="
M 759.00 308.00 
C 744.33 308.00 729.67 308.00 715.00 308.00
C 717.17 311.09 732.98 309.02 737.00 309.00 C 741.02 308.98 756.80 311.14 759.00 308.00 Z"/>
</g>
<g fill="#717169" fill-opacity="0.13" stroke="None">
<path d="
M 887.00 308.00 
C 887.00 308.00 886.50 308.00 886.00 308.00
C 871.34 308.00 856.66 308.00 842.00 308.00
C 844.37 311.38 860.60 308.78 865.00 309.00 C 869.40 309.22 884.07 311.03 887.00 308.00 Z"/>
</g>
<g fill="#F7F7F6" fill-opacity="0.76" stroke="None">
<path d="
M 165.00 311.00 
C 166.18 311.18 166.94 311.79 168.00 312.00
C 170.20 312.14 177.87 312.13 180.00 312.00
C 181.44 311.76 182.42 311.17 184.00 311.00
C 178.09 310.43 170.98 310.42 165.00 311.00 Z"/>
</g>
<g fill="#8C8D87" fill-opacity="0.03" stroke="None">
<path d="
M 168.00 312.00 
C 171.24 312.64 176.74 312.54 180.00 312.00
C 177.87 312.13 170.20 312.14 168.00 312.00 Z"/>
</g>
<g fill="#FCFCFC" fill-opacity="0.39" stroke="None">
<path d="
M 1325.00 382.00 
C 1319.48 385.95 1308.62 381.82 1302.00 383.00 C 1295.38 384.18 1286.37 382.91 1280.00 382.00
C 1280.89 387.99 1297.49 384.37 1303.00 385.00 C 1308.51 385.63 1321.78 386.42 1325.00 382.00 Z"/>
</g>
</svg>