<svg xmlns="http://www.w3.org/2000/svg" xmlns:v="https://svgstorm.com"
viewBox = "0 0 1509 400"
width="1509"
height="400">
<g fill="None" fill-opacity="0.0" stroke="#000000" stroke-opacity="0.00" stroke-width="0.3"><path d="
M 0.00 400.00 
L 1509.00 400.00
L 1509.00 0.00
L 0.00 0.00
L 0.00 400.00
M 1232.00 50.00 
C 1231.99 140.67 1232.00 231.33 1232.00 322.00
C 1217.33 322.00 1202.67 322.00 1188.00 322.00
C 1188.00 231.33 1188.00 140.67 1188.00 50.00
C 1202.66 50.00 1217.34 50.00 1232.00 50.00
M 321.00 127.00 
C 308.33 131.98 294.71 135.09 282.00 140.00
C 256.04 87.43 174.90 78.96 135.25 118.25 C 95.61 157.55 98.70 234.12 143.75 268.25 C 188.80 302.38 263.11 285.72 286.00 232.00
C 298.35 236.92 311.25 240.33 324.00 244.00
C 292.76 326.17 183.15 347.81 113.92 298.08 C 44.69 248.36 43.14 137.69 108.70 85.70 C 174.26 33.70 283.12 48.23 321.00 127.00
M 596.00 314.00 
C 593.97 317.48 584.45 314.20 580.00 315.00 C 575.55 315.80 567.12 314.73 562.00 315.00 C 556.88 315.27 550.37 315.15 545.00 315.00 C 539.63 314.85 532.28 315.60 527.00 315.00 C 521.72 314.40 514.05 316.92 510.00 314.00
C 503.67 309.43 504.55 296.35 500.22 289.78 C 495.90 283.20 493.91 273.32 490.23 265.77 C 486.55 258.22 484.11 248.51 480.22 240.78 C 476.33 233.05 474.92 224.04 470.69 216.31 C 466.47 208.58 465.03 198.81 461.00 191.00
C 461.30 193.63 460.65 205.77 459.00 208.00
C 459.00 208.50 459.00 209.00 459.00 209.00
C 462.68 213.97 460.00 229.50 460.00 236.00
C 460.00 257.46 461.00 279.22 461.00 301.00
C 461.00 305.27 461.38 309.75 461.00 314.00
C 458.89 316.19 449.21 315.46 446.00 315.00
C 445.65 314.95 445.05 314.35 445.00 314.00
C 443.76 305.41 445.00 295.69 445.00 287.00
C 445.00 283.00 445.00 279.00 445.00 275.00
C 444.70 271.92 444.77 267.99 445.00 265.00
C 444.94 262.12 444.24 259.57 444.00 257.00
C 443.33 249.81 444.00 242.22 444.00 235.00
C 444.00 226.02 444.36 216.97 444.00 208.00
C 443.94 206.38 443.05 203.90 443.00 203.00
C 440.07 217.24 435.12 235.21 429.08 248.08 C 423.03 260.94 417.01 275.75 407.70 285.70 C 398.38 295.65 390.77 310.85 377.00 314.00
C 364.84 316.78 351.52 312.58 339.00 314.00 C 326.48 315.42 312.64 312.94 300.00 314.00
C 300.11 313.00 299.53 311.27 301.00 311.00
C 302.73 299.45 315.06 290.22 319.25 279.25 C 323.44 268.29 332.51 258.51 337.75 247.75 C 343.00 237.00 350.12 226.52 355.92 215.92 C 361.72 205.32 368.40 194.89 374.25 184.25 C 380.11 173.62 386.56 163.27 392.75 152.75 C 398.95 142.24 404.64 131.42 410.92 120.92 C 417.20 110.42 423.04 99.87 429.30 89.30 C 435.57 78.74 441.68 67.60 448.00 57.00
C 497.93 142.07 547.22 228.23 596.00 314.00
M 769.00 160.00 
C 797.00 125.12 863.47 113.87 893.92 156.08 C 924.37 198.30 903.24 270.05 911.00 321.00
C 897.59 324.75 890.58 319.42 876.00 322.00 C 861.42 324.58 864.78 307.56 865.00 296.00 C 865.22 284.44 864.79 270.57 865.00 259.00 C 865.21 247.43 864.67 234.15 865.00 223.00 C 865.33 211.85 864.52 201.48 861.07 191.93 C 857.63 182.37 851.52 177.06 842.92 173.08 C 834.33 169.09 822.40 168.85 812.93 170.93 C 803.45 173.00 796.51 177.43 790.75 185.75 C 784.98 194.06 784.25 202.80 783.00 213.00 C 781.76 223.20 781.91 236.55 782.00 248.00 C 782.09 259.45 781.95 273.13 782.00 285.00 C 782.05 296.87 781.96 310.01 782.00 322.00
C 769.30 322.30 758.93 321.59 746.00 322.00 C 733.07 322.41 738.69 304.69 738.00 294.00 C 737.31 283.31 738.20 269.13 738.00 258.00 C 737.80 246.87 737.83 233.00 738.00 222.00 C 738.17 211.00 737.16 199.02 733.22 189.78 C 729.29 180.53 724.04 175.16 714.97 172.03 C 705.91 168.89 691.96 168.62 682.98 171.98 C 673.99 175.33 668.70 180.44 664.25 189.25 C 659.79 198.06 659.21 210.31 659.00 221.00 C 658.79 231.69 659.49 246.10 659.00 257.00 C 658.51 267.90 660.08 282.61 659.00 293.00 C 657.92 303.39 664.38 321.60 652.00 322.00 C 639.62 322.40 627.37 321.70 615.00 322.00
C 615.00 259.00 615.00 196.00 615.00 133.00
C 628.33 133.00 641.67 133.00 655.00 133.00
C 654.68 138.57 657.59 143.33 657.00 149.00
C 688.48 121.70 745.46 122.36 769.00 160.00
M 1001.00 301.00 
C 1000.83 312.35 1001.23 324.76 1001.00 336.00 C 1000.77 347.24 1001.43 360.15 1001.00 371.00 C 1000.57 381.85 1005.44 398.14 992.00 397.00 C 978.56 395.86 969.08 397.86 956.00 397.00
C 956.00 309.00 956.00 221.00 956.00 133.00
C 969.58 133.65 983.86 131.69 997.00 134.00
C 996.30 140.67 999.43 147.43 999.00 155.00
C 1032.06 119.66 1098.44 121.57 1127.75 160.25 C 1157.06 198.92 1156.34 254.17 1128.75 292.75 C 1101.15 331.32 1034.64 335.44 1001.00 301.00
M 1311.00 133.00 
C 1326.81 176.82 1345.29 221.22 1361.00 265.00
C 1379.70 220.83 1395.71 176.60 1414.00 132.00
C 1429.04 134.39 1446.26 132.25 1461.00 133.00
C 1456.52 141.53 1453.25 150.39 1449.22 159.22 C 1445.20 168.05 1441.85 177.13 1438.07 186.07 C 1434.30 195.01 1429.59 204.04 1426.07 213.07 C 1422.55 222.10 1417.79 230.20 1414.23 239.23 C 1410.67 248.26 1406.47 257.67 1402.70 266.69 C 1398.92 275.72 1394.93 284.20 1391.08 293.08 C 1387.23 301.96 1383.57 311.57 1379.23 320.23 C 1374.89 328.89 1372.56 338.53 1368.03 347.03 C 1363.49 355.52 1361.04 366.03 1356.08 374.08 C 1351.11 382.12 1352.22 396.28 1341.00 397.00 C 1329.78 397.72 1313.66 396.46 1302.00 397.00
C 1307.06 384.53 1312.39 372.08 1317.78 359.78 C 1323.16 347.47 1329.29 334.47 1333.98 321.98 C 1338.66 309.48 1327.88 297.06 1323.70 284.31 C 1319.51 271.55 1312.31 258.99 1307.69 246.31 C 1303.08 233.62 1296.69 220.50 1292.03 207.97 C 1287.36 195.45 1280.79 182.52 1276.08 169.92 C 1271.37 157.32 1264.27 144.64 1262.00 132.00
C 1277.83 134.32 1294.75 132.34 1311.00 133.00 Z"/>
</g>
<g fill="None" fill-opacity="0.0" stroke="#0F0B21" stroke-opacity="0.99" stroke-width="0.3"><path d="
M 1232.00 50.00 
C 1217.34 50.00 1202.66 50.00 1188.00 50.00
C 1188.00 140.67 1188.00 231.33 1188.00 322.00
C 1202.67 322.00 1217.33 322.00 1232.00 322.00
C 1232.00 231.33 1231.99 140.67 1232.00 50.00 Z"/>
</g>
<g fill="None" fill-opacity="0.0" stroke="#0E0A21" stroke-opacity="0.98" stroke-width="0.3"><path d="
M 321.00 127.00 
C 283.12 48.23 174.26 33.70 108.70 85.70 C 43.14 137.69 44.69 248.36 113.92 298.08 C 183.15 347.81 292.76 326.17 324.00 244.00
C 311.25 240.33 298.35 236.92 286.00 232.00
C 263.11 285.72 188.80 302.38 143.75 268.25 C 98.70 234.12 95.61 157.55 135.25 118.25 C 174.90 78.96 256.04 87.43 282.00 140.00
C 294.71 135.09 308.33 131.98 321.00 127.00 Z"/>
</g>
<g fill="None" fill-opacity="0.0" stroke="#37AE7F" stroke-opacity="0.98" stroke-width="0.3"><path d="
M 301.00 311.00 
C 302.47 315.73 318.81 312.60 325.00 313.00 C 331.20 313.40 343.80 313.76 351.00 313.00 C 358.20 312.24 370.59 314.87 377.00 314.00
C 390.77 310.85 398.38 295.65 407.70 285.70 C 417.01 275.75 423.03 260.94 429.08 248.08 C 435.12 235.21 440.07 217.24 443.00 203.00
C 443.36 201.27 442.41 198.47 445.00 198.00
C 444.39 201.17 446.25 205.65 444.00 208.00
C 444.36 216.97 444.00 226.02 444.00 235.00
C 444.57 240.86 445.81 248.43 445.00 255.00
C 445.96 264.95 446.00 276.35 446.00 287.00
C 446.00 295.37 447.19 304.73 446.00 313.00
C 449.93 312.13 455.98 312.64 460.00 313.00
C 460.00 308.92 460.68 304.34 461.00 301.00
C 461.00 279.22 460.00 257.46 460.00 236.00
C 459.20 227.68 459.01 218.01 459.00 209.00
C 459.00 209.00 459.00 208.50 459.00 208.00
C 459.00 201.33 459.00 194.67 459.00 188.00
C 460.01 188.55 460.44 189.98 461.00 191.00
C 465.03 198.81 466.47 208.58 470.69 216.31 C 474.92 224.04 476.33 233.05 480.22 240.78 C 484.11 248.51 486.55 258.22 490.23 265.77 C 493.91 273.32 495.90 283.20 500.22 289.78 C 504.55 296.35 503.67 309.43 510.00 314.00
C 517.62 317.77 529.30 312.31 538.00 314.00 C 546.70 315.69 557.84 313.12 567.00 314.00 C 576.16 314.88 586.71 313.34 596.00 314.00
C 547.22 228.23 497.93 142.07 448.00 57.00
C 441.68 67.60 435.57 78.74 429.30 89.30 C 423.04 99.87 417.20 110.42 410.92 120.92 C 404.64 131.42 398.95 142.24 392.75 152.75 C 386.56 163.27 380.11 173.62 374.25 184.25 C 368.40 194.89 361.72 205.32 355.92 215.92 C 350.12 226.52 343.00 237.00 337.75 247.75 C 332.51 258.51 323.44 268.29 319.25 279.25 C 315.06 290.22 302.73 299.45 301.00 311.00 Z"/>
</g>
<g fill="None" fill-opacity="0.0" stroke="#0E0A21" stroke-opacity="0.98" stroke-width="0.3"><path d="
M 769.00 160.00 
C 745.46 122.36 688.48 121.70 657.00 149.00
C 657.59 143.33 654.68 138.57 655.00 133.00
C 641.67 133.00 628.33 133.00 615.00 133.00
C 615.00 196.00 615.00 259.00 615.00 322.00
C 627.37 321.70 639.62 322.40 652.00 322.00 C 664.38 321.60 657.92 303.39 659.00 293.00 C 660.08 282.61 658.51 267.90 659.00 257.00 C 659.49 246.10 658.79 231.69 659.00 221.00 C 659.21 210.31 659.79 198.06 664.25 189.25 C 668.70 180.44 673.99 175.33 682.98 171.98 C 691.96 168.62 705.91 168.89 714.97 172.03 C 724.04 175.16 729.29 180.53 733.22 189.78 C 737.16 199.02 738.17 211.00 738.00 222.00 C 737.83 233.00 737.80 246.87 738.00 258.00 C 738.20 269.13 737.31 283.31 738.00 294.00 C 738.69 304.69 733.07 322.41 746.00 322.00 C 758.93 321.59 769.30 322.30 782.00 322.00
C 781.96 310.01 782.05 296.87 782.00 285.00 C 781.95 273.13 782.09 259.45 782.00 248.00 C 781.91 236.55 781.76 223.20 783.00 213.00 C 784.25 202.80 784.98 194.06 790.75 185.75 C 796.51 177.43 803.45 173.00 812.93 170.93 C 822.40 168.85 834.33 169.09 842.92 173.08 C 851.52 177.06 857.63 182.37 861.07 191.93 C 864.52 201.48 865.33 211.85 865.00 223.00 C 864.67 234.15 865.21 247.43 865.00 259.00 C 864.79 270.57 865.22 284.44 865.00 296.00 C 864.78 307.56 861.42 324.58 876.00 322.00 C 890.58 319.42 897.59 324.75 911.00 321.00
C 903.24 270.05 924.37 198.30 893.92 156.08 C 863.47 113.87 797.00 125.12 769.00 160.00 Z"/>
</g>
<g fill="None" fill-opacity="0.0" stroke="#0E0A20" stroke-opacity="0.98" stroke-width="0.3"><path d="
M 1001.00 301.00 
C 1034.64 335.44 1101.15 331.32 1128.75 292.75 C 1156.34 254.17 1157.06 198.92 1127.75 160.25 C 1098.44 121.57 1032.06 119.66 999.00 155.00
C 999.43 147.43 996.30 140.67 997.00 134.00
C 983.86 131.69 969.58 133.65 956.00 133.00
C 956.00 221.00 956.00 309.00 956.00 397.00
C 969.08 397.86 978.56 395.86 992.00 397.00 C 1005.44 398.14 1000.57 381.85 1001.00 371.00 C 1001.43 360.15 1000.77 347.24 1001.00 336.00 C 1001.23 324.76 1000.83 312.35 1001.00 301.00
M 1048.00 169.00 
C 1078.72 168.82 1100.07 193.93 1101.00 224.00 C 1101.93 254.07 1085.61 282.46 1053.99 284.99 C 1022.37 287.52 1002.69 260.79 1001.00 232.00 C 999.31 203.21 1015.02 169.20 1048.00 169.00 Z"/>
</g>
<g fill="None" fill-opacity="0.0" stroke="#0E0A21" stroke-opacity="0.98" stroke-width="0.3"><path d="
M 1311.00 133.00 
C 1294.75 132.34 1277.83 134.32 1262.00 132.00
C 1264.27 144.64 1271.37 157.32 1276.08 169.92 C 1280.79 182.52 1287.36 195.45 1292.03 207.97 C 1296.69 220.50 1303.08 233.62 1307.69 246.31 C 1312.31 258.99 1319.51 271.55 1323.70 284.31 C 1327.88 297.06 1338.66 309.48 1333.98 321.98 C 1329.29 334.47 1323.16 347.47 1317.78 359.78 C 1312.39 372.08 1307.06 384.53 1302.00 397.00
C 1313.66 396.46 1329.78 397.72 1341.00 397.00 C 1352.22 396.28 1351.11 382.12 1356.08 374.08 C 1361.04 366.03 1363.49 355.52 1368.03 347.03 C 1372.56 338.53 1374.89 328.89 1379.23 320.23 C 1383.57 311.57 1387.23 301.96 1391.08 293.08 C 1394.93 284.20 1398.92 275.72 1402.70 266.69 C 1406.47 257.67 1410.67 248.26 1414.23 239.23 C 1417.79 230.20 1422.55 222.10 1426.07 213.07 C 1429.59 204.04 1434.30 195.01 1438.07 186.07 C 1441.85 177.13 1445.20 168.05 1449.22 159.22 C 1453.25 150.39 1456.52 141.53 1461.00 133.00
C 1446.26 132.25 1429.04 134.39 1414.00 132.00
C 1395.71 176.60 1379.70 220.83 1361.00 265.00
C 1345.29 221.22 1326.81 176.82 1311.00 133.00 Z"/>
</g>
<g fill="None" fill-opacity="0.0" stroke="#000000" stroke-opacity="0.00" stroke-width="0.3"><path d="
M 1048.00 169.00 
C 1015.02 169.20 999.31 203.21 1001.00 232.00 C 1002.69 260.79 1022.37 287.52 1053.99 284.99 C 1085.61 282.46 1101.93 254.07 1101.00 224.00 C 1100.07 193.93 1078.72 168.82 1048.00 169.00 Z"/>
</g>
<g fill="None" fill-opacity="0.0" stroke="#165C36" stroke-opacity="0.07" stroke-width="0.3"><path d="
M 459.00 208.00 
C 460.65 205.77 461.30 193.63 461.00 191.00
C 460.44 189.98 460.01 188.55 459.00 188.00
C 459.00 194.67 459.00 201.33 459.00 208.00 Z"/>
</g>
<g fill="None" fill-opacity="0.0" stroke="#26BC71" stroke-opacity="0.34" stroke-width="0.3"><path d="
M 443.00 203.00 
C 443.05 203.90 443.94 206.38 444.00 208.00
C 446.25 205.65 444.39 201.17 445.00 198.00
C 442.41 198.47 443.36 201.27 443.00 203.00 Z"/>
</g>
<g fill="None" fill-opacity="0.0" stroke="#28BC6B" stroke-opacity="0.36" stroke-width="0.3"><path d="
M 460.00 236.00 
C 460.00 229.50 462.68 213.97 459.00 209.00
C 459.01 218.01 459.20 227.68 460.00 236.00 Z"/>
</g>
<g fill="None" fill-opacity="0.0" stroke="#1C9E52" stroke-opacity="0.08" stroke-width="0.3"><path d="
M 444.00 257.00 
C 444.00 256.97 444.93 255.56 445.00 255.00
C 445.81 248.43 444.57 240.86 444.00 235.00
C 444.00 242.22 443.33 249.81 444.00 257.00 Z"/>
</g>
<g fill="None" fill-opacity="0.0" stroke="#33BB7D" stroke-opacity="0.74" stroke-width="0.3"><path d="
M 444.00 257.00 
C 444.24 259.57 444.94 262.12 445.00 265.00
C 445.07 268.33 445.00 271.67 445.00 275.00
C 445.00 279.00 445.00 283.00 445.00 287.00
C 445.00 286.96 446.00 287.00 446.00 287.00
C 446.00 276.35 445.96 264.95 445.00 255.00
C 444.93 255.56 444.00 256.97 444.00 257.00 Z"/>
</g>
<g fill="None" fill-opacity="0.0" stroke="#004E00" stroke-opacity="0.01" stroke-width="0.3"><path d="
M 445.00 275.00 
C 445.00 271.67 445.07 268.33 445.00 265.00
C 444.77 267.99 444.70 271.92 445.00 275.00 Z"/>
</g>
<g fill="None" fill-opacity="0.0" stroke="#33C17C" stroke-opacity="0.54" stroke-width="0.3"><path d="
M 445.00 314.00 
C 445.04 313.78 445.95 313.35 446.00 313.00
C 447.19 304.73 446.00 295.37 446.00 287.00
C 446.00 287.00 445.00 286.96 445.00 287.00
C 445.00 295.69 443.76 305.41 445.00 314.00 Z"/>
</g>
<g fill="None" fill-opacity="0.0" stroke="#2FD47F" stroke-opacity="0.49" stroke-width="0.3"><path d="
M 460.00 313.00 
C 460.00 313.50 460.00 314.00 460.00 314.00
C 460.50 314.00 461.00 314.00 461.00 314.00
C 461.38 309.75 461.00 305.27 461.00 301.00
C 460.68 304.34 460.00 308.92 460.00 313.00 Z"/>
</g>
<g fill="None" fill-opacity="0.0" stroke="#31D17E" stroke-opacity="0.55" stroke-width="0.3"><path d="
M 377.00 314.00 
C 370.59 314.87 358.20 312.24 351.00 313.00 C 343.80 313.76 331.20 313.40 325.00 313.00 C 318.81 312.60 302.47 315.73 301.00 311.00
C 299.53 311.27 300.11 313.00 300.00 314.00
C 312.64 312.94 326.48 315.42 339.00 314.00 C 351.52 312.58 364.84 316.78 377.00 314.00 Z"/>
</g>
<g fill="None" fill-opacity="0.0" stroke="#37CF90" stroke-opacity="0.73" stroke-width="0.3"><path d="
M 445.00 314.00 
C 445.05 314.35 445.65 314.95 446.00 315.00
C 450.13 313.76 455.21 314.00 460.00 314.00
C 460.00 314.00 460.00 313.50 460.00 313.00
C 455.98 312.64 449.93 312.13 446.00 313.00
C 445.95 313.35 445.04 313.78 445.00 314.00 Z"/>
</g>
<g fill="None" fill-opacity="0.0" stroke="#5A5A5A" stroke-opacity="0.01" stroke-width="0.3"><path d="
M 446.00 315.00 
C 449.21 315.46 458.89 316.19 461.00 314.00
C 461.00 314.00 460.50 314.00 460.00 314.00
C 455.21 314.00 450.13 313.76 446.00 315.00 Z"/>
</g>
<g fill="None" fill-opacity="0.0" stroke="#134A31" stroke-opacity="0.05" stroke-width="0.3"><path d="
M 596.00 314.00 
C 586.71 313.34 576.16 314.88 567.00 314.00 C 557.84 313.12 546.70 315.69 538.00 314.00 C 529.30 312.31 517.62 317.77 510.00 314.00
C 514.05 316.92 521.72 314.40 527.00 315.00 C 532.28 315.60 539.63 314.85 545.00 315.00 C 550.37 315.15 556.88 315.27 562.00 315.00 C 567.12 314.73 575.55 315.80 580.00 315.00 C 584.45 314.20 593.97 317.48 596.00 314.00 Z"/>
</g>
<g fill="#000000" fill-opacity="0.00" stroke="None">
<path d="
M 0.00 400.00 
L 1509.00 400.00
L 1509.00 0.00
L 0.00 0.00
L 0.00 400.00
M 1232.00 50.00 
C 1231.99 140.67 1232.00 231.33 1232.00 322.00
C 1217.33 322.00 1202.67 322.00 1188.00 322.00
C 1188.00 231.33 1188.00 140.67 1188.00 50.00
C 1202.66 50.00 1217.34 50.00 1232.00 50.00
M 321.00 127.00 
C 308.33 131.98 294.71 135.09 282.00 140.00
C 256.04 87.43 174.90 78.96 135.25 118.25 C 95.61 157.55 98.70 234.12 143.75 268.25 C 188.80 302.38 263.11 285.72 286.00 232.00
C 298.35 236.92 311.25 240.33 324.00 244.00
C 292.76 326.17 183.15 347.81 113.92 298.08 C 44.69 248.36 43.14 137.69 108.70 85.70 C 174.26 33.70 283.12 48.23 321.00 127.00
M 596.00 314.00 
C 593.97 317.48 584.45 314.20 580.00 315.00 C 575.55 315.80 567.12 314.73 562.00 315.00 C 556.88 315.27 550.37 315.15 545.00 315.00 C 539.63 314.85 532.28 315.60 527.00 315.00 C 521.72 314.40 514.05 316.92 510.00 314.00
C 503.67 309.43 504.55 296.35 500.22 289.78 C 495.90 283.20 493.91 273.32 490.23 265.77 C 486.55 258.22 484.11 248.51 480.22 240.78 C 476.33 233.05 474.92 224.04 470.69 216.31 C 466.47 208.58 465.03 198.81 461.00 191.00
C 461.30 193.63 460.65 205.77 459.00 208.00
C 459.00 208.50 459.00 209.00 459.00 209.00
C 462.68 213.97 460.00 229.50 460.00 236.00
C 460.00 257.46 461.00 279.22 461.00 301.00
C 461.00 305.27 461.38 309.75 461.00 314.00
C 458.89 316.19 449.21 315.46 446.00 315.00
C 445.65 314.95 445.05 314.35 445.00 314.00
C 443.76 305.41 445.00 295.69 445.00 287.00
C 445.00 283.00 445.00 279.00 445.00 275.00
C 444.70 271.92 444.77 267.99 445.00 265.00
C 444.94 262.12 444.24 259.57 444.00 257.00
C 443.33 249.81 444.00 242.22 444.00 235.00
C 444.00 226.02 444.36 216.97 444.00 208.00
C 443.94 206.38 443.05 203.90 443.00 203.00
C 440.07 217.24 435.12 235.21 429.08 248.08 C 423.03 260.94 417.01 275.75 407.70 285.70 C 398.38 295.65 390.77 310.85 377.00 314.00
C 364.84 316.78 351.52 312.58 339.00 314.00 C 326.48 315.42 312.64 312.94 300.00 314.00
C 300.11 313.00 299.53 311.27 301.00 311.00
C 302.73 299.45 315.06 290.22 319.25 279.25 C 323.44 268.29 332.51 258.51 337.75 247.75 C 343.00 237.00 350.12 226.52 355.92 215.92 C 361.72 205.32 368.40 194.89 374.25 184.25 C 380.11 173.62 386.56 163.27 392.75 152.75 C 398.95 142.24 404.64 131.42 410.92 120.92 C 417.20 110.42 423.04 99.87 429.30 89.30 C 435.57 78.74 441.68 67.60 448.00 57.00
C 497.93 142.07 547.22 228.23 596.00 314.00
M 769.00 160.00 
C 797.00 125.12 863.47 113.87 893.92 156.08 C 924.37 198.30 903.24 270.05 911.00 321.00
C 897.59 324.75 890.58 319.42 876.00 322.00 C 861.42 324.58 864.78 307.56 865.00 296.00 C 865.22 284.44 864.79 270.57 865.00 259.00 C 865.21 247.43 864.67 234.15 865.00 223.00 C 865.33 211.85 864.52 201.48 861.07 191.93 C 857.63 182.37 851.52 177.06 842.92 173.08 C 834.33 169.09 822.40 168.85 812.93 170.93 C 803.45 173.00 796.51 177.43 790.75 185.75 C 784.98 194.06 784.25 202.80 783.00 213.00 C 781.76 223.20 781.91 236.55 782.00 248.00 C 782.09 259.45 781.95 273.13 782.00 285.00 C 782.05 296.87 781.96 310.01 782.00 322.00
C 769.30 322.30 758.93 321.59 746.00 322.00 C 733.07 322.41 738.69 304.69 738.00 294.00 C 737.31 283.31 738.20 269.13 738.00 258.00 C 737.80 246.87 737.83 233.00 738.00 222.00 C 738.17 211.00 737.16 199.02 733.22 189.78 C 729.29 180.53 724.04 175.16 714.97 172.03 C 705.91 168.89 691.96 168.62 682.98 171.98 C 673.99 175.33 668.70 180.44 664.25 189.25 C 659.79 198.06 659.21 210.31 659.00 221.00 C 658.79 231.69 659.49 246.10 659.00 257.00 C 658.51 267.90 660.08 282.61 659.00 293.00 C 657.92 303.39 664.38 321.60 652.00 322.00 C 639.62 322.40 627.37 321.70 615.00 322.00
C 615.00 259.00 615.00 196.00 615.00 133.00
C 628.33 133.00 641.67 133.00 655.00 133.00
C 654.68 138.57 657.59 143.33 657.00 149.00
C 688.48 121.70 745.46 122.36 769.00 160.00
M 1001.00 301.00 
C 1000.83 312.35 1001.23 324.76 1001.00 336.00 C 1000.77 347.24 1001.43 360.15 1001.00 371.00 C 1000.57 381.85 1005.44 398.14 992.00 397.00 C 978.56 395.86 969.08 397.86 956.00 397.00
C 956.00 309.00 956.00 221.00 956.00 133.00
C 969.58 133.65 983.86 131.69 997.00 134.00
C 996.30 140.67 999.43 147.43 999.00 155.00
C 1032.06 119.66 1098.44 121.57 1127.75 160.25 C 1157.06 198.92 1156.34 254.17 1128.75 292.75 C 1101.15 331.32 1034.64 335.44 1001.00 301.00
M 1311.00 133.00 
C 1326.81 176.82 1345.29 221.22 1361.00 265.00
C 1379.70 220.83 1395.71 176.60 1414.00 132.00
C 1429.04 134.39 1446.26 132.25 1461.00 133.00
C 1456.52 141.53 1453.25 150.39 1449.22 159.22 C 1445.20 168.05 1441.85 177.13 1438.07 186.07 C 1434.30 195.01 1429.59 204.04 1426.07 213.07 C 1422.55 222.10 1417.79 230.20 1414.23 239.23 C 1410.67 248.26 1406.47 257.67 1402.70 266.69 C 1398.92 275.72 1394.93 284.20 1391.08 293.08 C 1387.23 301.96 1383.57 311.57 1379.23 320.23 C 1374.89 328.89 1372.56 338.53 1368.03 347.03 C 1363.49 355.52 1361.04 366.03 1356.08 374.08 C 1351.11 382.12 1352.22 396.28 1341.00 397.00 C 1329.78 397.72 1313.66 396.46 1302.00 397.00
C 1307.06 384.53 1312.39 372.08 1317.78 359.78 C 1323.16 347.47 1329.29 334.47 1333.98 321.98 C 1338.66 309.48 1327.88 297.06 1323.70 284.31 C 1319.51 271.55 1312.31 258.99 1307.69 246.31 C 1303.08 233.62 1296.69 220.50 1292.03 207.97 C 1287.36 195.45 1280.79 182.52 1276.08 169.92 C 1271.37 157.32 1264.27 144.64 1262.00 132.00
C 1277.83 134.32 1294.75 132.34 1311.00 133.00 Z"/>
</g>
<g fill="#0F0B21" fill-opacity="0.99" stroke="None">
<path d="
M 1232.00 50.00 
C 1217.34 50.00 1202.66 50.00 1188.00 50.00
C 1188.00 140.67 1188.00 231.33 1188.00 322.00
C 1202.67 322.00 1217.33 322.00 1232.00 322.00
C 1232.00 231.33 1231.99 140.67 1232.00 50.00 Z"/>
</g>
<g fill="#0E0A21" fill-opacity="0.98" stroke="None">
<path d="
M 321.00 127.00 
C 283.12 48.23 174.26 33.70 108.70 85.70 C 43.14 137.69 44.69 248.36 113.92 298.08 C 183.15 347.81 292.76 326.17 324.00 244.00
C 311.25 240.33 298.35 236.92 286.00 232.00
C 263.11 285.72 188.80 302.38 143.75 268.25 C 98.70 234.12 95.61 157.55 135.25 118.25 C 174.90 78.96 256.04 87.43 282.00 140.00
C 294.71 135.09 308.33 131.98 321.00 127.00 Z"/>
</g>
<g fill="#37AE7F" fill-opacity="0.98" stroke="None">
<path d="
M 301.00 311.00 
C 302.47 315.73 318.81 312.60 325.00 313.00 C 331.20 313.40 343.80 313.76 351.00 313.00 C 358.20 312.24 370.59 314.87 377.00 314.00
C 390.77 310.85 398.38 295.65 407.70 285.70 C 417.01 275.75 423.03 260.94 429.08 248.08 C 435.12 235.21 440.07 217.24 443.00 203.00
C 443.36 201.27 442.41 198.47 445.00 198.00
C 444.39 201.17 446.25 205.65 444.00 208.00
C 444.36 216.97 444.00 226.02 444.00 235.00
C 444.57 240.86 445.81 248.43 445.00 255.00
C 445.96 264.95 446.00 276.35 446.00 287.00
C 446.00 295.37 447.19 304.73 446.00 313.00
C 449.93 312.13 455.98 312.64 460.00 313.00
C 460.00 308.92 460.68 304.34 461.00 301.00
C 461.00 279.22 460.00 257.46 460.00 236.00
C 459.20 227.68 459.01 218.01 459.00 209.00
C 459.00 209.00 459.00 208.50 459.00 208.00
C 459.00 201.33 459.00 194.67 459.00 188.00
C 460.01 188.55 460.44 189.98 461.00 191.00
C 465.03 198.81 466.47 208.58 470.69 216.31 C 474.92 224.04 476.33 233.05 480.22 240.78 C 484.11 248.51 486.55 258.22 490.23 265.77 C 493.91 273.32 495.90 283.20 500.22 289.78 C 504.55 296.35 503.67 309.43 510.00 314.00
C 517.62 317.77 529.30 312.31 538.00 314.00 C 546.70 315.69 557.84 313.12 567.00 314.00 C 576.16 314.88 586.71 313.34 596.00 314.00
C 547.22 228.23 497.93 142.07 448.00 57.00
C 441.68 67.60 435.57 78.74 429.30 89.30 C 423.04 99.87 417.20 110.42 410.92 120.92 C 404.64 131.42 398.95 142.24 392.75 152.75 C 386.56 163.27 380.11 173.62 374.25 184.25 C 368.40 194.89 361.72 205.32 355.92 215.92 C 350.12 226.52 343.00 237.00 337.75 247.75 C 332.51 258.51 323.44 268.29 319.25 279.25 C 315.06 290.22 302.73 299.45 301.00 311.00 Z"/>
</g>
<g fill="#0E0A21" fill-opacity="0.98" stroke="None">
<path d="
M 769.00 160.00 
C 745.46 122.36 688.48 121.70 657.00 149.00
C 657.59 143.33 654.68 138.57 655.00 133.00
C 641.67 133.00 628.33 133.00 615.00 133.00
C 615.00 196.00 615.00 259.00 615.00 322.00
C 627.37 321.70 639.62 322.40 652.00 322.00 C 664.38 321.60 657.92 303.39 659.00 293.00 C 660.08 282.61 658.51 267.90 659.00 257.00 C 659.49 246.10 658.79 231.69 659.00 221.00 C 659.21 210.31 659.79 198.06 664.25 189.25 C 668.70 180.44 673.99 175.33 682.98 171.98 C 691.96 168.62 705.91 168.89 714.97 172.03 C 724.04 175.16 729.29 180.53 733.22 189.78 C 737.16 199.02 738.17 211.00 738.00 222.00 C 737.83 233.00 737.80 246.87 738.00 258.00 C 738.20 269.13 737.31 283.31 738.00 294.00 C 738.69 304.69 733.07 322.41 746.00 322.00 C 758.93 321.59 769.30 322.30 782.00 322.00
C 781.96 310.01 782.05 296.87 782.00 285.00 C 781.95 273.13 782.09 259.45 782.00 248.00 C 781.91 236.55 781.76 223.20 783.00 213.00 C 784.25 202.80 784.98 194.06 790.75 185.75 C 796.51 177.43 803.45 173.00 812.93 170.93 C 822.40 168.85 834.33 169.09 842.92 173.08 C 851.52 177.06 857.63 182.37 861.07 191.93 C 864.52 201.48 865.33 211.85 865.00 223.00 C 864.67 234.15 865.21 247.43 865.00 259.00 C 864.79 270.57 865.22 284.44 865.00 296.00 C 864.78 307.56 861.42 324.58 876.00 322.00 C 890.58 319.42 897.59 324.75 911.00 321.00
C 903.24 270.05 924.37 198.30 893.92 156.08 C 863.47 113.87 797.00 125.12 769.00 160.00 Z"/>
</g>
<g fill="#0E0A20" fill-opacity="0.98" stroke="None">
<path d="
M 1001.00 301.00 
C 1034.64 335.44 1101.15 331.32 1128.75 292.75 C 1156.34 254.17 1157.06 198.92 1127.75 160.25 C 1098.44 121.57 1032.06 119.66 999.00 155.00
C 999.43 147.43 996.30 140.67 997.00 134.00
C 983.86 131.69 969.58 133.65 956.00 133.00
C 956.00 221.00 956.00 309.00 956.00 397.00
C 969.08 397.86 978.56 395.86 992.00 397.00 C 1005.44 398.14 1000.57 381.85 1001.00 371.00 C 1001.43 360.15 1000.77 347.24 1001.00 336.00 C 1001.23 324.76 1000.83 312.35 1001.00 301.00
M 1048.00 169.00 
C 1078.72 168.82 1100.07 193.93 1101.00 224.00 C 1101.93 254.07 1085.61 282.46 1053.99 284.99 C 1022.37 287.52 1002.69 260.79 1001.00 232.00 C 999.31 203.21 1015.02 169.20 1048.00 169.00 Z"/>
</g>
<g fill="#0E0A21" fill-opacity="0.98" stroke="None">
<path d="
M 1311.00 133.00 
C 1294.75 132.34 1277.83 134.32 1262.00 132.00
C 1264.27 144.64 1271.37 157.32 1276.08 169.92 C 1280.79 182.52 1287.36 195.45 1292.03 207.97 C 1296.69 220.50 1303.08 233.62 1307.69 246.31 C 1312.31 258.99 1319.51 271.55 1323.70 284.31 C 1327.88 297.06 1338.66 309.48 1333.98 321.98 C 1329.29 334.47 1323.16 347.47 1317.78 359.78 C 1312.39 372.08 1307.06 384.53 1302.00 397.00
C 1313.66 396.46 1329.78 397.72 1341.00 397.00 C 1352.22 396.28 1351.11 382.12 1356.08 374.08 C 1361.04 366.03 1363.49 355.52 1368.03 347.03 C 1372.56 338.53 1374.89 328.89 1379.23 320.23 C 1383.57 311.57 1387.23 301.96 1391.08 293.08 C 1394.93 284.20 1398.92 275.72 1402.70 266.69 C 1406.47 257.67 1410.67 248.26 1414.23 239.23 C 1417.79 230.20 1422.55 222.10 1426.07 213.07 C 1429.59 204.04 1434.30 195.01 1438.07 186.07 C 1441.85 177.13 1445.20 168.05 1449.22 159.22 C 1453.25 150.39 1456.52 141.53 1461.00 133.00
C 1446.26 132.25 1429.04 134.39 1414.00 132.00
C 1395.71 176.60 1379.70 220.83 1361.00 265.00
C 1345.29 221.22 1326.81 176.82 1311.00 133.00 Z"/>
</g>
<g fill="#000000" fill-opacity="0.00" stroke="None">
<path d="
M 1048.00 169.00 
C 1015.02 169.20 999.31 203.21 1001.00 232.00 C 1002.69 260.79 1022.37 287.52 1053.99 284.99 C 1085.61 282.46 1101.93 254.07 1101.00 224.00 C 1100.07 193.93 1078.72 168.82 1048.00 169.00 Z"/>
</g>
<g fill="#165C36" fill-opacity="0.07" stroke="None">
<path d="
M 459.00 208.00 
C 460.65 205.77 461.30 193.63 461.00 191.00
C 460.44 189.98 460.01 188.55 459.00 188.00
C 459.00 194.67 459.00 201.33 459.00 208.00 Z"/>
</g>
<g fill="#26BC71" fill-opacity="0.34" stroke="None">
<path d="
M 443.00 203.00 
C 443.05 203.90 443.94 206.38 444.00 208.00
C 446.25 205.65 444.39 201.17 445.00 198.00
C 442.41 198.47 443.36 201.27 443.00 203.00 Z"/>
</g>
<g fill="#28BC6B" fill-opacity="0.36" stroke="None">
<path d="
M 460.00 236.00 
C 460.00 229.50 462.68 213.97 459.00 209.00
C 459.01 218.01 459.20 227.68 460.00 236.00 Z"/>
</g>
<g fill="#1C9E52" fill-opacity="0.08" stroke="None">
<path d="
M 444.00 257.00 
C 444.00 256.97 444.93 255.56 445.00 255.00
C 445.81 248.43 444.57 240.86 444.00 235.00
C 444.00 242.22 443.33 249.81 444.00 257.00 Z"/>
</g>
<g fill="#33BB7D" fill-opacity="0.74" stroke="None">
<path d="
M 444.00 257.00 
C 444.24 259.57 444.94 262.12 445.00 265.00
C 445.07 268.33 445.00 271.67 445.00 275.00
C 445.00 279.00 445.00 283.00 445.00 287.00
C 445.00 286.96 446.00 287.00 446.00 287.00
C 446.00 276.35 445.96 264.95 445.00 255.00
C 444.93 255.56 444.00 256.97 444.00 257.00 Z"/>
</g>
<g fill="#004E00" fill-opacity="0.01" stroke="None">
<path d="
M 445.00 275.00 
C 445.00 271.67 445.07 268.33 445.00 265.00
C 444.77 267.99 444.70 271.92 445.00 275.00 Z"/>
</g>
<g fill="#33C17C" fill-opacity="0.54" stroke="None">
<path d="
M 445.00 314.00 
C 445.04 313.78 445.95 313.35 446.00 313.00
C 447.19 304.73 446.00 295.37 446.00 287.00
C 446.00 287.00 445.00 286.96 445.00 287.00
C 445.00 295.69 443.76 305.41 445.00 314.00 Z"/>
</g>
<g fill="#2FD47F" fill-opacity="0.49" stroke="None">
<path d="
M 460.00 313.00 
C 460.00 313.50 460.00 314.00 460.00 314.00
C 460.50 314.00 461.00 314.00 461.00 314.00
C 461.38 309.75 461.00 305.27 461.00 301.00
C 460.68 304.34 460.00 308.92 460.00 313.00 Z"/>
</g>
<g fill="#31D17E" fill-opacity="0.55" stroke="None">
<path d="
M 377.00 314.00 
C 370.59 314.87 358.20 312.24 351.00 313.00 C 343.80 313.76 331.20 313.40 325.00 313.00 C 318.81 312.60 302.47 315.73 301.00 311.00
C 299.53 311.27 300.11 313.00 300.00 314.00
C 312.64 312.94 326.48 315.42 339.00 314.00 C 351.52 312.58 364.84 316.78 377.00 314.00 Z"/>
</g>
<g fill="#37CF90" fill-opacity="0.73" stroke="None">
<path d="
M 445.00 314.00 
C 445.05 314.35 445.65 314.95 446.00 315.00
C 450.13 313.76 455.21 314.00 460.00 314.00
C 460.00 314.00 460.00 313.50 460.00 313.00
C 455.98 312.64 449.93 312.13 446.00 313.00
C 445.95 313.35 445.04 313.78 445.00 314.00 Z"/>
</g>
<g fill="#5A5A5A" fill-opacity="0.01" stroke="None">
<path d="
M 446.00 315.00 
C 449.21 315.46 458.89 316.19 461.00 314.00
C 461.00 314.00 460.50 314.00 460.00 314.00
C 455.21 314.00 450.13 313.76 446.00 315.00 Z"/>
</g>
<g fill="#134A31" fill-opacity="0.05" stroke="None">
<path d="
M 596.00 314.00 
C 586.71 313.34 576.16 314.88 567.00 314.00 C 557.84 313.12 546.70 315.69 538.00 314.00 C 529.30 312.31 517.62 317.77 510.00 314.00
C 514.05 316.92 521.72 314.40 527.00 315.00 C 532.28 315.60 539.63 314.85 545.00 315.00 C 550.37 315.15 556.88 315.27 562.00 315.00 C 567.12 314.73 575.55 315.80 580.00 315.00 C 584.45 314.20 593.97 317.48 596.00 314.00 Z"/>
</g>
</svg>